<?xml version="1.0" standalone="no"?>
<!DOCTYPE svg PUBLIC "-//W3C//DTD SVG 1.1//EN" "http://www.w3.org/Graphics/SVG/1.1/DTD/svg11.dtd" >
<svg xmlns="http://www.w3.org/2000/svg">
<metadata></metadata>
<defs>
<font id="santanaregular" horiz-adv-x="614" >
<font-face units-per-em="2048" ascent="1638" descent="-410" />
<missing-glyph horiz-adv-x="491" />
<glyph horiz-adv-x="2048" />
<glyph horiz-adv-x="2048" />
<glyph horiz-adv-x="682" />
<glyph d="M59 1401q0 -39 13.5 -81t42 -78t76 -58.5t116.5 -22.5q104 0 175 64.5t73 175.5h-78q-4 -25 -14 -53.5t-30.5 -51t-51.5 -38t-74 -15.5q-70 0 -113.5 46t-56.5 112h-78z" />
<glyph d="M229 1239q0 -33 21.5 -58.5t56.5 -25.5q37 0 58.5 25.5t21.5 58.5q0 35 -21.5 59.5t-56.5 24.5t-57.5 -25.5t-22.5 -58.5z" />
<glyph horiz-adv-x="819" d="M217 1276q0 -78 55.5 -131t139.5 -53q37 0 71.5 14t61 38.5t42 58.5t15.5 73q0 80 -54 134t-136 54q-84 0 -139.5 -55t-55.5 -133zM299 1276q0 53 29.5 90t81.5 37q51 0 82.5 -36t31.5 -89q0 -51 -31.5 -88t-82.5 -37q-47 0 -79 38t-32 85z" />
<glyph unicode="&#xa;" d="M180 1135h78l250 260h-141zM446 1135h78l250 260h-141z" />
<glyph d="M139 -248q0 -72 46 -115t118 -43q82 0 143 27l-18 66q-25 -12 -52.5 -15.5t-49.5 -3.5q-37 0 -66 25.5t-29 77.5q0 33 16.5 64.5t44 62t63.5 56.5t73 46h-88q-29 -10 -63.5 -35.5t-65.5 -59.5t-51.5 -74t-20.5 -79z" />
<glyph d="M63 1397l209 -287h78l201 287h-96l-142 -211h-4l-141 211h-105z" />
<glyph unicode="&#xd;" horiz-adv-x="460" d="M180 0h101v983h-101v-983z" />
<glyph horiz-adv-x="876" d="M-16 -25h84l825 1381h-84z" />
<glyph horiz-adv-x="1064" d="M31 903h149v-1315h101v1315h503v-903h101v983h-604v57q0 72 13 138.5t45 117t86 81t136 30.5q66 0 123 -19.5t92 -48.5l49 78q-18 14 -46.5 28.5t-61.5 24t-69 15.5t-68 6q-102 0 -177 -33t-124.5 -92t-74 -141t-24.5 -183v-59h-149v-80z" />
<glyph horiz-adv-x="1064" d="M31 903h149v-1315h101v1315h288v80h-288v53q0 74 15 140.5t53 118t100.5 82t154.5 30.5q68 0 110 -9t70 -24v-1374h101v1436q-47 25 -115 40t-145 15q-104 0 -177 -25.5t-126 -72.5q-141 -129 -142 -373v-37h-149v-80z" />
<glyph horiz-adv-x="1003" d="M-12 477l192 133v-610h785v84h-684v588l301 202v91l-301 -203v618h-101v-682l-192 -131v-90z" />
<glyph horiz-adv-x="460" d="M33 555l147 121v-676h101v750l147 120v95l-147 -121v622h-101v-698l-147 -121v-92z" />
<glyph horiz-adv-x="1239" d="M76 0h1091v84h-960v6l946 1221v69h-999v-84h866v-6l-944 -1222v-68zM381 1690l231 -236h74l223 236h-102l-154 -160h-4l-157 160h-111z" />
<glyph horiz-adv-x="901" d="M33 0h844v82h-713v4q31 35 59.5 67.5t57.5 67.5l587 692l2 70h-794v-82h672v-4q-35 -37 -66 -71.5t-61 -71.5l-588 -693v-61zM248 1397l209 -287h78l200 287h-96l-141 -211h-4l-142 211h-104z" />
<glyph unicode=" "  horiz-adv-x="491" />
<glyph unicode="&#x09;" horiz-adv-x="491" />
<glyph unicode="&#xa0;" horiz-adv-x="491" />
<glyph unicode="!" horiz-adv-x="440" d="M133 70q0 -37 23.5 -66t62.5 -29q41 0 64.5 29t23.5 66q0 41 -23.5 68.5t-62.5 27.5t-62.5 -27.5t-25.5 -68.5zM156 1380l20 -1011h84l21 1011h-125z" />
<glyph unicode="&#x22;" horiz-adv-x="618" d="M123 1423l29 -454h65l29 454h-123zM373 1423l28 -454h66l29 454h-123z" />
<glyph unicode="#" horiz-adv-x="1024" d="M82 426h186l-53 -426h88l53 426h250l-53 -426h88l53 426h207v80h-196l40 330h197v79h-186l51 416h-86l-53 -416h-250l51 416h-86l-53 -416h-205v-79h194l-40 -330h-197v-80zM367 506l41 330h249l-41 -330h-249z" />
<glyph unicode="$" horiz-adv-x="1085" d="M162 137q57 -47 142 -71.5t169 -24.5v-215h86v215q82 12 143.5 46t100.5 80t58.5 99.5t19.5 104.5q0 70 -22.5 124t-64.5 98t-102.5 79t-136.5 67q-147 61 -210.5 118.5t-63.5 148.5q0 37 14 75.5t45 69.5t80 51.5t121 20.5q100 0 163.5 -29t92.5 -49l45 78 q-45 29 -107.5 52t-154.5 28v219h-86v-219q-141 -18 -224.5 -103.5t-83.5 -206.5t83 -199.5t259 -150.5q121 -49 188.5 -113.5t67.5 -164.5q0 -51 -21.5 -96.5t-59 -78t-92 -51t-119.5 -18.5q-84 0 -158 26.5t-127 67.5z" />
<glyph unicode="%" horiz-adv-x="1576" d="M61 936q0 -104 25 -179t66 -124t93 -72.5t109 -23.5q63 0 118.5 26.5t96.5 78.5t64.5 132.5t23.5 186.5q0 201 -79.5 298t-208.5 97q-57 0 -112.5 -25.5t-99.5 -77t-70 -131.5t-26 -186zM152 946q2 160 60 250t150 90q111 0 160 -91t49 -243q0 -162 -52 -254t-159 -92 q-94 0 -153.5 90t-54.5 250zM332 -25h84l825 1381h-84zM920 389q0 -104 24.5 -179t65.5 -124t93 -72.5t109 -23.5q63 0 118.5 26.5t96.5 78.5t65 132.5t24 186.5q0 201 -80 298t-209 97q-57 0 -112.5 -25.5t-99.5 -77t-69.5 -131t-25.5 -186.5zM1010 399q2 160 60 250 t151 90q111 0 160 -90.5t49 -242.5q0 -162 -52.5 -254.5t-158.5 -92.5q-94 0 -153.5 90.5t-55.5 249.5z" />
<glyph unicode="&#x26;" horiz-adv-x="1208" d="M61 362q0 -86 33 -156.5t88.5 -121.5t130 -80t160.5 -29q119 0 228.5 38t230.5 145q53 -47 90 -85t76 -73h129q-55 49 -112.5 104.5t-125.5 120.5q68 72 114 193t81 305h-94q-16 -92 -33 -160.5t-36.5 -121t-42 -91.5t-46.5 -71q-35 35 -83 85t-104.5 110.5t-121 129 t-127.5 139.5v7q2 2 4 2t4 2q94 47 158.5 91t105.5 88t59.5 92t18.5 103q0 59 -21.5 110.5t-58.5 88.5t-89 57.5t-114 20.5q-80 0 -142.5 -28.5t-104.5 -75t-64.5 -105.5t-22.5 -123q0 -137 127 -297v-6q-59 -29 -112.5 -66.5t-93 -88t-64.5 -113t-25 -140.5zM160 377 q0 70 25.5 125t62.5 96t79 68.5t76 44.5q78 -86 153 -167t138.5 -146.5t110 -114t69.5 -68.5q-66 -68 -161 -114t-215 -46q-70 0 -131.5 22.5t-107.5 64.5t-72.5 101.5t-26.5 133.5zM326 1083q0 47 14 91.5t43 78t71 54t97 20.5q53 0 92 -18.5t63.5 -49t36 -67.5t11.5 -74 q0 -55 -22.5 -98t-63.5 -80t-97.5 -69.5t-124.5 -65.5q-41 53 -80.5 120.5t-39.5 157.5z" />
<glyph unicode="'" horiz-adv-x="368" d="M123 1423l29 -454h65l29 454h-123z" />
<glyph unicode="(" horiz-adv-x="552" d="M133 582q0 -152 26.5 -275t71.5 -225t100.5 -185t114.5 -151h97q-68 84 -125.5 173t-99.5 189.5t-65.5 216t-23.5 255.5q0 141 22.5 261t63.5 223t98.5 193.5t129.5 172.5h-97q-59 -72 -114.5 -156t-100.5 -187.5t-71.5 -228.5t-26.5 -276z" />
<glyph unicode=")" horiz-adv-x="552" d="M10 -254h96q57 70 113.5 154t102 186t72 226t26.5 276t-26.5 276.5t-72 228t-101.5 186.5t-114 151h-96q70 -84 127.5 -173.5t98 -190.5t64.5 -219t24 -257q0 -141 -24 -259t-65.5 -221.5t-99 -192.5t-125.5 -171z" />
<glyph unicode="*" horiz-adv-x="819" d="M61 1020l301 31v-7l-186 -245l82 -56l145 275h5l129 -275l100 56l-186 243v7l307 -29v100l-309 -24v4l188 252l-94 53l-131 -272h-4l-136 272l-96 -55l184 -248v-4l-299 22v-100z" />
<glyph unicode="+" horiz-adv-x="1220" d="M82 506h483v-506h90v506h484v82h-484v502h-90v-502h-483v-82z" />
<glyph unicode="," horiz-adv-x="358" d="M55 -258l80 10q12 20 32.5 71.5t44.5 115t45.5 132.5t35.5 126l-131 -21q-6 -47 -19.5 -109.5t-29 -124t-30.5 -114.5t-28 -86z" />
<glyph unicode="-" d="M61 535h492v88h-492v-88z" />
<glyph unicode="." horiz-adv-x="358" d="M55 70q-2 -37 22.5 -66t63.5 -29q41 0 64.5 29t23.5 66q0 41 -23.5 68.5t-62.5 27.5t-63.5 -27.5t-24.5 -68.5z" />
<glyph unicode="/" horiz-adv-x="765" d="M-49 -82h98l737 1487h-104z" />
<glyph unicode="0" horiz-adv-x="1085" d="M84 657q2 -178 40 -307t99.5 -212t140 -123t164.5 -40q221 0 347 179.5t126 535.5q0 168 -32.5 294t-91 208t-139.5 123t-179 41q-90 0 -176 -41t-152.5 -127t-107.5 -218t-39 -313zM186 676q2 135 29 245.5t73 188.5t110.5 121t142.5 43q94 0 160.5 -43t109.5 -122 t63.5 -189.5t20.5 -243.5q0 -139 -21.5 -254t-65.5 -196t-112.5 -125t-160.5 -44q-78 0 -143.5 42t-112 122t-71 194.5t-22.5 260.5z" />
<glyph unicode="1" horiz-adv-x="1085" d="M266 1188l25 -80l217 125h4v-1233h98v1331h-96z" />
<glyph unicode="2" horiz-adv-x="1085" d="M100 0h861v84h-717v4l94 84q147 131 257 236.5t182.5 199.5t108.5 184.5t36 190.5q0 53 -19.5 117.5t-65.5 122t-123 95.5t-194 38q-109 0 -203 -39t-172 -109l41 -67q51 45 132 86t182 41q96 0 157.5 -29t97.5 -73t50 -99t14 -111q0 -78 -29.5 -150.5t-98 -159.5 t-181.5 -197.5t-279 -264.5l-131 -121v-63z" />
<glyph unicode="3" horiz-adv-x="1085" d="M102 74q45 -33 137.5 -66t209.5 -33q127 0 219 35t151.5 92.5t87 128t27.5 142.5q0 68 -24.5 126t-67.5 103t-101.5 77t-128.5 44v4q129 45 195.5 128t66.5 187q0 53 -19 109.5t-63 101.5t-116 74t-176 29q-102 0 -194.5 -36t-145.5 -77l41 -74q49 39 125.5 70t162.5 31 q80 0 134.5 -21.5t86 -56.5t46 -77t14.5 -85q0 -70 -34 -121t-86 -86t-116.5 -52t-125.5 -17h-107v-74h100q76 0 152 -16.5t137.5 -53.5t99 -96t39.5 -145q0 -35 -12 -87.5t-52 -101.5t-111.5 -84t-190.5 -35q-53 0 -101.5 9.5t-90.5 22.5t-74.5 29.5t-53.5 31.5z" />
<glyph unicode="4" horiz-adv-x="1085" d="M12 389h703v-389h96v389h221v84h-221v858h-78l-721 -874v-68zM133 473v4l483 588q23 27 45.5 57.5t51.5 73.5l6 -2q-4 -35 -4 -74v-76v-571h-582z" />
<glyph unicode="5" horiz-adv-x="1085" d="M98 70q45 -33 133 -64t207 -31q98 0 184.5 33t151 91.5t102 140.5t37.5 182q0 74 -21.5 135t-55 107.5t-76.5 79t-86 49.5q-59 23 -117.5 33t-128.5 10q-53 0 -85 -3.5t-58 -7.5l63 418h547v88h-625l-84 -598q41 6 95.5 11.5t119.5 5.5q111 0 189 -28t127 -75 t72.5 -110.5t23.5 -135.5t-27.5 -133t-77 -107t-116 -73t-146.5 -27q-104 0 -184 30t-123 59z" />
<glyph unicode="6" horiz-adv-x="1085" d="M78 541q0 -145 39 -252t105.5 -176.5t151.5 -103.5t177 -34q113 0 198 42t142 110t86 150.5t29 166.5q0 92 -30 171t-86 137.5t-137 92.5t-184 34q-68 0 -127 -17.5t-107 -45.5t-85 -63.5t-62 -74.5h-4q8 102 48 196.5t105.5 170t157 129t203.5 75.5q12 4 23.5 5t23.5 3 q33 4 64 5.5t55 1.5l-2 92q-29 0 -68.5 -3t-82.5 -14q-231 -43 -389 -188q-102 -92 -173 -246.5t-71 -363.5zM180 510q0 23 8.5 44t18.5 42q49 86 141 141.5t197 55.5q76 0 141.5 -24t113.5 -69t74.5 -110.5t26.5 -149.5q0 -78 -23.5 -146.5t-68.5 -120.5t-108.5 -83 t-143.5 -31q-94 0 -164.5 36t-118 97.5t-71 143.5t-23.5 174z" />
<glyph unicode="7" horiz-adv-x="1085" d="M145 1247h736v-4l-648 -1243h99l653 1251v80h-840v-84z" />
<glyph unicode="8" horiz-adv-x="1085" d="M88 338q0 -86 37 -152.5t98.5 -113.5t144.5 -72t175 -25q86 0 168 27t145.5 76t102 120.5t38.5 161.5q0 113 -72.5 203t-230.5 142v8q76 31 125 69.5t78 81.5t39 86t10 82q0 70 -27.5 129.5t-79 102.5t-123 67.5t-159.5 24.5q-90 0 -166 -26.5t-131 -73t-86 -110 t-31 -138.5q0 -86 53.5 -167t186.5 -132v-9q-147 -55 -221 -147t-74 -215zM195 356q4 115 81.5 201t233.5 121q92 -20 165 -48t122 -68t74.5 -93t25.5 -127q0 -55 -23.5 -107.5t-69.5 -91.5t-111.5 -62.5t-151.5 -23.5q-84 0 -149.5 26t-110.5 66.5t-66.5 95t-19.5 111.5z M246 1022q0 49 19.5 94t58 81t96 57.5t135.5 21.5q82 0 137.5 -23.5t90 -60.5t50 -81t15.5 -85q0 -117 -78 -190.5t-195 -104.5q-160 31 -245.5 100.5t-83.5 190.5z" />
<glyph unicode="9" horiz-adv-x="1085" d="M106 879q0 -74 26 -148t78 -131t129 -93t181 -36q117 0 213 47t168 139l6 2q-20 -141 -68 -241.5t-114 -171.5q-68 -72 -148.5 -114t-173.5 -54q-113 -16 -172 -10v-93q82 -4 205 19q78 14 164 55t154 101q49 43 94 102t81 139t57.5 179.5t21.5 220.5q0 145 -35 251.5 t-94.5 176t-138 103.5t-165.5 34q-109 0 -195.5 -41t-147 -107.5t-93.5 -152.5t-33 -176zM207 883q0 76 23.5 146.5t68.5 123.5t109.5 86t144.5 33q92 0 159.5 -37t110.5 -101.5t63.5 -150.5t20.5 -184q0 -20 -6 -35.5t-12 -26.5q-47 -76 -139.5 -128t-214.5 -52 q-74 0 -134.5 24.5t-103.5 68.5t-66.5 103.5t-23.5 129.5z" />
<glyph unicode=":" horiz-adv-x="358" d="M111 70q0 -37 23.5 -66t62.5 -29q41 0 64.5 29t23.5 66q0 41 -23.5 68.5t-62.5 27.5t-62.5 -27.5t-25.5 -68.5zM113 817q0 -37 23.5 -65.5t62.5 -28.5q41 0 64.5 28.5t23.5 65.5q0 41 -23.5 68.5t-62.5 27.5t-62.5 -27.5t-25.5 -68.5z" />
<glyph unicode=";" horiz-adv-x="358" d="M55 -258l80 10q12 20 32.5 71.5t44.5 115t45.5 132.5t35.5 126l-131 -21q-6 -47 -19.5 -109.5t-29 -124t-30.5 -114.5t-28 -86zM127 817q0 -37 23.5 -65.5t62.5 -28.5q41 0 64.5 28.5t23.5 65.5q0 41 -23.5 68.5t-62.5 27.5t-62.5 -27.5t-25.5 -68.5z" />
<glyph unicode="&#x3c;" horiz-adv-x="1220" d="M145 510l930 -510v96l-833 447v4l833 446v97l-930 -510v-70z" />
<glyph unicode="=" horiz-adv-x="1220" d="M82 317h1057v82h-1057v-82zM82 707h1057v81h-1057v-81z" />
<glyph unicode="&#x3e;" horiz-adv-x="1220" d="M145 0l930 510v70l-930 510v-97l834 -446v-4l-834 -447v-96z" />
<glyph unicode="?" horiz-adv-x="839" d="M106 1313l41 -72q43 35 106.5 54.5t125.5 19.5q125 0 183.5 -62.5t58.5 -154.5q0 -72 -37 -143.5t-127 -168.5q-86 -94 -124 -185t-28 -175l8 -64h93l-5 74q-4 72 28 147.5t116 168.5q94 102 139 183t45 169q0 55 -19.5 109.5t-60.5 96.5t-103.5 68.5t-148.5 26.5 q-33 0 -70.5 -5t-76.5 -16.5t-76 -29t-68 -41.5zM274 70q0 -37 24 -66t62 -29q41 0 65 29t24 66q0 41 -24 68.5t-63 27.5t-62.5 -27.5t-25.5 -68.5z" />
<glyph unicode="@" horiz-adv-x="1568" d="M78 375q0 -145 52 -267t142 -209t209 -135.5t252 -48.5q104 0 199.5 21.5t181.5 68.5l-33 74q-66 -41 -153.5 -62.5t-188.5 -21.5q-117 0 -220 43t-180 122t-121 187.5t-44 237.5q0 158 52.5 285t141.5 216t208.5 136t254.5 47q133 0 238 -43t177.5 -119t110.5 -179 t38 -226q0 -84 -17.5 -146.5t-52.5 -108.5t-86 -80t-117 -61q-8 -4 -16 -2t-16 2q-6 31 -10.5 63t-4.5 64v314q0 51 -10 114.5t-44 119t-98.5 93t-174.5 37.5q-35 0 -74 -6l3 -15q3 -16 9 -56q12 2 26.5 3t28.5 1q86 0 135.5 -32t74 -74t30.5 -85t6 -67v-21 q-305 4 -445.5 -84t-140.5 -235q0 -47 22.5 -98.5t72.5 -86.5q53 -41 125 -49h4q12 -2 24.5 -3t26.5 -1q59 0 109.5 14.5t90 38t68.5 51t45 52.5h4l33 -138l80 5v2q66 0 134.5 36.5t123.5 101t91 154t36 193.5q0 133 -45 249t-129 201t-203 134t-266 49q-182 0 -325.5 -63.5 t-242 -170t-150.5 -246t-52 -290.5zM494 256q0 76 45 122t115.5 70.5t158.5 31.5t174 5v-184q0 -25 -12 -49q-12 -29 -36 -60.5t-59.5 -58.5t-83.5 -43t-112 -16q-78 0 -134 45t-56 137z" />
<glyph unicode="A" horiz-adv-x="1310" d="M61 0l105 -20l190 505h615l194 -505l105 20l-553 1380h-99zM391 569l197 492q25 61 42 110.5t34 102.5h4q16 -51 31.5 -100.5t43.5 -118.5l195 -486h-547z" />
<glyph unicode="B" horiz-adv-x="1122" d="M180 0q47 -4 113.5 -8t146.5 -4q168 0 287 32.5t191 104.5q47 47 75.5 110.5t28.5 149.5q0 88 -33 149.5t-80 103.5t-99 63.5t-89 29.5v6q51 18 96 49t78 71t51.5 88t18.5 99q0 141 -86 228q-61 61 -154.5 91t-235.5 30q-86 0 -165.5 -8.5t-143.5 -22.5v-1362zM281 84 v604h206q88 0 166 -17.5t136.5 -54t93.5 -95t35 -140.5q0 -92 -39 -151.5t-101.5 -95.5t-141.5 -49t-161 -13q-61 0 -110.5 2t-83.5 10zM281 770v522q27 6 73.5 11.5t128.5 5.5q76 0 145.5 -12.5t121 -43t82 -82t30.5 -131.5q0 -55 -22.5 -104t-65.5 -86t-106.5 -58.5 t-145.5 -21.5h-241z" />
<glyph unicode="C" horiz-adv-x="1310" d="M78 684q0 -180 61.5 -313t162.5 -221.5t233.5 -131.5t271.5 -43q150 0 261.5 25.5t170.5 54.5l-31 80q-72 -35 -167 -54.5t-197 -19.5q-164 0 -287 48.5t-207 131.5t-126 195.5t-42 239.5q0 139 44 258t131 205t215 134t296 48q98 0 185.5 -19.5t148.5 -50.5l33 84 q-35 16 -125 43t-248 27q-195 0 -341 -62.5t-244.5 -164t-148.5 -230.5t-50 -264z" />
<glyph unicode="D" horiz-adv-x="1482" d="M180 0q90 -8 177 -10t182 -2q233 0 404 61.5t271 167.5q109 117 150 251t41 253q0 135 -40 245.5t-126 204.5q-98 106 -261 164t-384 58q-117 0 -219.5 -9.5t-194.5 -21.5v-1362zM281 84v1198q53 10 128.5 18.5t176.5 8.5q188 0 324.5 -45t223.5 -124t128 -186.5 t41 -234.5q0 -135 -44.5 -253t-134.5 -205t-231 -138t-338 -51q-84 0 -154.5 2t-119.5 10z" />
<glyph unicode="E" horiz-adv-x="1046" d="M180 0h826v84h-725v602h614v84h-614v526h608v84h-709v-1380z" />
<glyph unicode="F" horiz-adv-x="1044" d="M180 0h101v670h696v84h-696v542h649v84h-750v-1380z" />
<glyph unicode="G" horiz-adv-x="1421" d="M78 692q0 -158 54 -291t147 -219q117 -109 254 -152.5t296 -43.5q119 0 213.5 16t159.5 37q29 8 51.5 1t38.5 -7v649h-456v-82h356v-473q-47 -25 -131 -41t-213 -16q-158 0 -282 46t-209 129t-130 195.5t-45 247.5q0 129 44 241.5t132 197.5t217.5 134.5t298.5 49.5 q113 0 195 -19.5t145 -48.5l33 82q-43 20 -141 45t-227 25q-209 0 -359.5 -64.5t-249 -166t-145.5 -226.5t-47 -246z" />
<glyph unicode="H" horiz-adv-x="1425" d="M180 0h101v692h864v-692h100v1380h-100v-604h-864v604h-101v-1380z" />
<glyph unicode="I" horiz-adv-x="460" d="M180 0h101v1380h-101v-1380z" />
<glyph unicode="J" horiz-adv-x="774" d="M-45 14q29 -14 85 -26.5t112 -12.5q74 0 145.5 20.5t128.5 73t92 145t35 237.5v929h-100v-903q0 -123 -20.5 -202.5t-58.5 -127t-94.5 -67t-127.5 -19.5q-55 0 -99.5 10.5t-72.5 24.5z" />
<glyph unicode="K" horiz-adv-x="1105" d="M180 0h101v569l159 160l609 -770l104 41l-643 793l582 587l-97 21l-581 -588q-29 -31 -62 -64.5t-63 -74.5h-8v706h-101v-1380z" />
<glyph unicode="L" horiz-adv-x="1003" d="M180 0h785v223h-80v-139h-604v1296h-101v-1380z" />
<glyph unicode="M" horiz-adv-x="1730" d="M137 0l99 -20l49 651q6 86 11 174t10 171t8 158.5t5 135.5h5q35 -111 82 -238t112 -289l299 -743h76l319 754q66 158 116 281.5t91 234.5h4q0 -55 3.5 -130t8.5 -158t11 -169t10 -162l43 -671l98 20l-98 1380h-119l-348 -825q-59 -137 -100 -243.5t-70 -194.5h-4 q-61 186 -164 440l-332 823h-114z" />
<glyph unicode="N" horiz-adv-x="1445" d="M180 0h99v737q0 154 -2.5 272.5t-10.5 235.5l6 4q55 -92 132 -199.5t165 -228.5l605 -821h92v1380h-99v-712q0 -160 3.5 -288t13.5 -249l-4 -4q-53 92 -120 183t-161 220l-625 850h-94v-1380z" />
<glyph unicode="O" horiz-adv-x="1542" d="M78 672q0 -152 52 -280t144.5 -220t218 -144.5t273.5 -52.5q135 0 261 47.5t223.5 140.5t155.5 230.5t58 315.5q0 150 -50 276.5t-141 219.5t-217 146.5t-278 53.5q-147 0 -275 -53.5t-222.5 -150.5t-148.5 -232t-54 -297zM180 676q0 127 37 244.5t111.5 207t185.5 142.5 t258 53t257 -55.5t182.5 -144.5t109.5 -199.5t37 -223.5q0 -137 -41 -254.5t-118 -203.5t-187.5 -135.5t-247.5 -49.5q-135 0 -243.5 51.5t-183.5 136.5t-116 196.5t-41 234.5zM682 700q0 -37 23.5 -65.5t62.5 -28.5q41 0 64.5 28.5t23.5 65.5q0 41 -23.5 69t-62.5 28 t-62.5 -28t-25.5 -69z" />
<glyph unicode="P" horiz-adv-x="1122" d="M180 0h101v588q43 -14 93 -17.5t103 -3.5q137 0 250 38t184 112q107 106 107 284q0 86 -28.5 153t-82.5 116q-61 59 -160.5 91t-238.5 32q-96 0 -179 -8.5t-149 -18.5v-1366zM281 676v614q31 6 89 12.5t136 6.5q84 0 158.5 -16.5t131 -54.5t89.5 -99.5t33 -149.5 q0 -160 -111 -249t-318 -89q-59 0 -112 5.5t-96 19.5z" />
<glyph unicode="Q" horiz-adv-x="1542" d="M78 672q0 -152 52 -280t144.5 -220t218 -144.5t273.5 -52.5q199 0 369 101q-16 -49 -50 -113q-63 -129 -63 -221q0 -94 78 -172q43 -43 96 -62q41 -15 84 -15q14 0 28 1q58 6 119.5 37t120.5 90q57 55 92.5 119t51.5 127l-86 35q-12 -53 -40 -113.5t-81 -114.5 q-47 -45 -91 -66.5t-84 -24.5q-7 -1 -14 -1q-32 0 -61 12q-35 15 -61 41q-53 53 -53 119q0 8 1 15q6 75 62 184q31 59 45 110.5t16 96.5q100 92 159.5 229t59.5 320q0 150 -50 276.5t-141 219.5t-217 146.5t-278 53.5q-147 0 -275 -53.5t-222.5 -150.5t-148.5 -232t-54 -297 zM180 676q0 127 37 244.5t111.5 207t185.5 142.5t258 53t257 -55.5t182.5 -144.5t109.5 -199.5t37 -223.5q0 -127 -34 -235.5t-99 -192.5q-16 33 -41 58q-37 37 -87 58q-45 18 -93 18h-12q-56 -3 -115.5 -29.5t-114.5 -83.5q-45 -45 -81 -107.5t-52 -113.5 q-104 25 -188.5 82t-141.5 138t-88 179t-31 205zM721 59q14 41 42 93.5t71 95.5q72 70 146 70q1 1 2 1q73 0 122 -51q35 -36 45 -75q-74 -66 -171 -101t-214 -35h-23q-10 0 -20 2z" />
<glyph unicode="R" horiz-adv-x="1124" d="M180 0h101v633h262q141 0 214.5 -76t108.5 -225q14 -66 27.5 -126.5t25 -110.5t21.5 -86t18 -50l107 41q-25 45 -49.5 133t-63.5 252q-25 104 -79 178t-140 103v4q127 39 206 130t79 228q0 72 -26.5 136.5t-71.5 105.5q-63 61 -159.5 92t-244.5 31q-80 0 -172 -8.5 t-164 -22.5v-1362zM281 715v573q29 8 88 15.5t145 7.5q82 0 155.5 -15.5t129 -51.5t87.5 -93t32 -139q0 -135 -99.5 -216t-271.5 -81h-266z" />
<glyph unicode="S" horiz-adv-x="1034" d="M94 78q31 -23 74 -42.5t92 -32.5t101.5 -20.5t101.5 -7.5q123 0 212 33t146.5 87.5t84 122.5t26.5 140q0 84 -24.5 145.5t-74 108.5t-122 83t-166.5 67q-168 53 -240 122.5t-72 180.5q0 41 16.5 86t54.5 84t100.5 63.5t154.5 24.5q102 0 173 -25.5t99 -46.5l39 84 q-41 27 -118.5 48.5t-188.5 21.5q-96 0 -174 -26.5t-135 -75t-88 -113t-31 -139.5q0 -135 90 -225.5t297 -155.5q86 -29 145.5 -59.5t96.5 -69.5t53.5 -86t16.5 -107q0 -129 -95.5 -209t-263.5 -80q-100 0 -187 28t-155 75z" />
<glyph unicode="T" horiz-adv-x="1044" d="M-41 1296h514v-1296h100v1296h514v84h-1128v-84z" />
<glyph unicode="U" horiz-adv-x="1415" d="M180 582q0 -170 42 -286t113 -186.5t163 -102.5t192 -32q111 0 209 34t173 107.5t119 191.5t44 284v788h-100v-796q0 -137 -33 -235.5t-91.5 -163t-138 -95.5t-176.5 -31q-86 0 -161.5 30t-132 92.5t-89 161.5t-32.5 241v796h-101v-798z" />
<glyph unicode="V" horiz-adv-x="1116" d="M-16 1380l503 -1380h99l573 1380l-108 21l-308 -783q-59 -154 -111 -279.5t-87 -236.5h-4q-33 109 -78 234t-101 285l-272 780z" />
<glyph unicode="W" horiz-adv-x="1804" d="M23 1380l391 -1380h98l258 795q51 162 86 270.5t53 198.5h4q8 -47 18.5 -96.5t25 -105.5t33 -123t40.5 -148l223 -791h99l456 1380l-104 21l-254 -815q-43 -137 -79 -250t-60 -211h-4q-16 92 -50 215t-69 250l-223 790h-99l-254 -792q-43 -135 -81.5 -256t-57.5 -207h-4 q-23 88 -56.5 209t-68.5 254l-219 813z" />
<glyph unicode="X" horiz-adv-x="1228" d="M66 0h118l215 324q39 57 69 102t53.5 80t42 64.5t36.5 58.5h4q37 -55 85 -124t126 -179l229 -326h119l-495 705l495 675h-121l-262 -374q-53 -78 -92 -132.5t-74 -107.5h-4q-33 49 -70.5 106.5t-88.5 135.5l-246 372h-119l463 -682z" />
<glyph unicode="Y" horiz-adv-x="1107" d="M25 1380l483 -790v-590h100v586l514 794l-114 21l-269 -451q-49 -84 -93 -153.5t-79 -134.5h-4q-39 72 -80 137t-88 151l-256 451z" />
<glyph unicode="Z" horiz-adv-x="1239" d="M76 0h1091l21 84h-371h-610v6l946 1221v69h-999l-21 -84h887v-6l-944 -1222v-68z" />
<glyph unicode="[" horiz-adv-x="552" d="M184 -229h379v77h-287v1479h287v78h-379v-1634z" />
<glyph unicode="\" horiz-adv-x="757" d="M-20 1405l725 -1487h102l-725 1487h-102z" />
<glyph unicode="]" horiz-adv-x="552" d="M-10 -152v-77h379v1634h-379v-78h286v-1479h-286z" />
<glyph unicode="^" horiz-adv-x="1220" d="M143 401h97l368 838h4l369 -838h96l-420 930h-94z" />
<glyph unicode="_" horiz-adv-x="1024" d="M0 -457v-102h1024v102h-1024z" />
<glyph unicode="`" d="M59 1397l260 -287h78l-186 287h-152z" />
<glyph unicode="a" horiz-adv-x="1015" d="M86 246q0 -55 25.5 -112.5t83.5 -98.5q29 -20 63.5 -34.5t77.5 -20.5h4q14 -2 28.5 -3.5t30.5 -1.5q68 0 125.5 16.5t102.5 43t77.5 57.5t51.5 60h4l37 -172l92 20q-10 59 -23.5 118.5t-13.5 119.5v356q0 57 -11.5 130t-49 135.5t-111.5 105.5t-199 43q-41 0 -84 -7 l3 -17t10 -64q16 2 31.5 3t31.5 1q98 0 153.5 -35t83 -83t35 -98.5t7.5 -76.5v-23h-26q-324 0 -479 -95q-161 -99 -161 -267zM193 264q0 86 51 138.5t131 80t179 35.5q79 6 158 6h40v-209q0 -27 -13 -57q-14 -33 -40.5 -68.5t-67.5 -64.5t-96.5 -48.5t-126.5 -19.5 q-86 0 -150.5 51.5t-64.5 155.5z" />
<glyph unicode="b" horiz-adv-x="1255" d="M172 0h92l6 190h4q72 -117 173.5 -166t230.5 -49q92 0 179 34t156.5 100.5t111.5 166t42 230.5q0 102 -33.5 193.5t-95 160t-148.5 108.5t-196 40q-154 0 -255 -64.5t-154 -163.5h-4v686h-101v-1228q0 -59 -2 -119t-6 -119zM281 391v170q0 29 5 50.5t11 39.5 q20 68 59 120t89.5 86t108.5 51.5t120 17.5q92 0 164.5 -34t124 -92.5t78 -135t26.5 -162.5q0 -100 -28.5 -182t-81 -140.5t-127 -90.5t-168.5 -32q-72 0 -132.5 21.5t-108.5 56.5t-82 82t-48 98q-10 41 -10 76z" />
<glyph unicode="c" horiz-adv-x="1019" d="M88 477q0 -106 37 -198.5t105.5 -160t165 -105.5t212.5 -38q127 0 212 28t118 44l-29 80q-43 -18 -111.5 -42t-174.5 -24q-94 0 -173 31t-137.5 87.5t-91.5 135t-33 174.5q0 90 30 169t86 137.5t140 92.5t195 34q96 0 161.5 -20.5t108.5 -45.5l37 82q-31 23 -109.5 46.5 t-189.5 23.5q-119 0 -221 -37t-177 -105.5t-118 -167t-43 -221.5z" />
<glyph unicode="d" horiz-adv-x="1183" d="M90 477q0 -109 36 -200t100.5 -158.5t155.5 -105.5t200 -38q92 0 182 31t162.5 96.5t118 168t45.5 247.5q0 111 -24 209t-69 188q-35 72 -83 137.5t-107 125.5q-27 29 -55.5 53t-59.5 47l-71 53q-66 49 -144 89t-155 71l-41 -82q68 -25 134 -56.5t115 -66.5l76 -51 q117 -78 195 -171t135 -194l-4 -6q-88 88 -172 116t-172 28q-92 0 -181.5 -37t-160 -105.5t-113.5 -167t-43 -221.5zM188 481q0 76 24 155t73 143.5t124.5 105.5t178.5 41q106 0 178 -37t119 -82q55 -53 77.5 -120.5t22.5 -182.5q0 -109 -31.5 -193t-87 -140t-129 -85 t-159.5 -29q-74 0 -143.5 29t-124 82t-88.5 132t-34 181z" />
<glyph unicode="e" horiz-adv-x="1099" d="M88 467q0 -106 36 -196.5t101.5 -156t158.5 -102.5t208 -37q37 0 70.5 2.5t62.5 6.5l-8 84q-49 -6 -115 -7q-88 0 -164 27t-132 81t-88 134t-32 189h818q4 12 4 24v37q0 49 -15.5 126t-61.5 150.5t-130 126t-221 52.5q-104 0 -194.5 -38t-156 -107.5t-103.5 -170 t-38 -225.5zM193 571q8 55 32.5 118t68.5 115t111.5 87t161.5 35q111 0 177.5 -41t102.5 -98.5t46 -117t10 -98.5h-710z" />
<glyph unicode="f" horiz-adv-x="583" d="M10 903h170v-1077q0 -43 -9 -86t-21.5 -77t-21.5 -55l-9 -20l100 -20l9 22q10 21 22 58t21.5 84t9.5 96v1075h268l20 80h-288v49q0 74 10 142.5t36.5 120t74 82t122.5 30.5q49 0 82 -9t56 -22l32 78q-33 20 -100 33q-14 2 -29.5 3t-32.5 1q-139 0 -233 -88 q-63 -59 -91 -152.5t-28 -220.5v-47h-149z" />
<glyph unicode="g" horiz-adv-x="774" d="M16 641q0 -76 29 -138.5t80 -109.5q-2 -8 -8 -33.5t-11.5 -56.5t-8.5 -61.5t1 -44.5q10 -51 29.5 -76t51.5 -37t78 -21.5t114 -29.5q117 -37 174 -85t57 -134q0 -76 -59.5 -133.5t-188.5 -57.5q-74 0 -137 22.5t-108 51.5l-37 -86q55 -33 125.5 -52.5t148.5 -19.5 q84 0 149.5 21.5t111.5 59.5t69.5 90t23.5 112q0 111 -66.5 175t-201.5 112q-55 18 -100 27t-77 20.5t-50.5 32t-18.5 61.5q0 2 3.5 20.5t6.5 43t1 34.5q70 -37 161 -37q57 0 118 19.5t111 61.5t82.5 106.5t32.5 154.5v9q0 75 -32 142q-35 70 -99 118l160 -19v88l-369 -4h-4 q-63 0 -124.5 -23.5t-109.5 -68.5t-78 -109.5t-30 -144.5zM104 645q0 49 15.5 97.5t48.5 86t80 61t112 23.5q68 0 116 -25.5t80 -64.5t46 -85t14 -89q0 -68 -21.5 -117t-57 -81.5t-81.5 -49t-96 -16.5q-45 0 -90 16.5t-81.5 49t-60.5 81t-24 113.5z" />
<glyph unicode="h" horiz-adv-x="1210" d="M180 0h101v584q0 63 16 104q18 45 50 87t76 74t96 51.5t112 19.5q78 0 134 -26t93 -69q43 -51 62.5 -120.5t19.5 -147.5v-354q0 -49 9 -93t21.5 -78t21.5 -54l9 -19l101 41q-2 4 -15.5 35t-30 80t-16.5 88v358q0 100 -21.5 173t-56 123t-77.5 80t-86 45t-81 20.5t-61 5.5 q-59 0 -116.5 -17.5t-104.5 -46.5q-51 -29 -90 -71t-61 -89h-4v682h-101v-1466z" />
<glyph unicode="i" horiz-adv-x="460" d="M147 1294q0 -35 23 -61.5t59 -26.5q39 0 61.5 26.5t22.5 61.5t-23.5 61.5t-58.5 26.5t-59.5 -26.5t-24.5 -61.5zM180 0h101v983h-101v-983z" />
<glyph unicode="j" horiz-adv-x="471" d="M-119 -352l10 -82q27 0 64 5t77 18.5t79 34t67 50.5q70 74 91.5 171.5t21.5 226.5v911h-101v-838q0 -104 -5 -173.5t-14 -115.5t-25.5 -76t-36.5 -52q-37 -39 -95.5 -58.5t-132.5 -21.5zM158 1294q0 -33 21.5 -60.5t60.5 -27.5q41 0 62.5 27.5t21.5 60.5q0 35 -22.5 61.5 t-57.5 26.5q-37 0 -61.5 -26.5t-24.5 -61.5z" />
<glyph unicode="k" horiz-adv-x="937" d="M180 0h101v412l112 108l469 -561l105 41l-502 578l438 405h-127l-383 -360q-27 -25 -57.5 -58t-50.5 -55h-4v956h-101v-1466z" />
<glyph unicode="l" horiz-adv-x="522" d="M180 494q0 -129 15.5 -232.5t85.5 -177.5q29 -31 66.5 -51.5t74.5 -31.5t67.5 -16t49.5 -5l10 90q-37 0 -93.5 20.5t-93.5 59.5q-23 23 -38 52t-24 75.5t-14 116t-5 173.5v899h-101v-972z" />
<glyph unicode="m" horiz-adv-x="1837" d="M172 983q4 -59 6 -118.5t2 -119.5v-745h101v598q0 27 5 51.5t13 44.5q16 41 45 82t68 73t88 52.5t104 20.5q125 0 197.5 -89.5t72.5 -234.5v-598h101v627q0 29 6 52t14 44q16 37 44 72.5t65 63.5t82 45.5t96 17.5q141 0 215 -101q35 -47 53.5 -114.5t18.5 -159.5v-35 t1 -87t1 -112v-110q0 -68 15.5 -125.5t28.5 -86t15 -32.5l101 41q-2 4 -15.5 35t-30 80t-16.5 88v346q0 154 -42 245t-99.5 138t-116.5 61.5t-94 14.5q-92 0 -153.5 -25t-114.5 -72q-29 -25 -54.5 -58.5t-48.5 -78.5h-4q-16 47 -45 89t-67.5 75t-89 51.5t-107.5 18.5 q-135 0 -218 -61.5t-136 -153.5h-5l-8 190h-94z" />
<glyph unicode="n" horiz-adv-x="1210" d="M172 983q4 -59 6 -118.5t2 -119.5v-745h101v600q0 23 5 47.5t11 40.5q16 47 49 89t76 75t96 51.5t113 18.5q84 0 143.5 -30t96 -80t53 -115.5t16.5 -137.5v-356q0 -68 16.5 -126.5t29.5 -86t15 -31.5l101 41q-2 4 -15.5 35t-30 80t-16.5 88v356q0 102 -22.5 175t-57 123 t-77.5 80t-86 45t-80 20.5t-60 5.5q-68 0 -127 -17.5t-107 -48.5t-85 -71t-59 -85h-5l-8 197h-94z" />
<glyph unicode="o" horiz-adv-x="1210" d="M88 481q0 -109 38 -202t105.5 -160.5t160.5 -105.5t204 -38q90 0 183 31t170 95.5t125 164t48 238.5q0 104 -35.5 196.5t-102 161t-162 107.5t-214.5 39q-102 0 -196.5 -36t-166 -104.5t-114.5 -166t-43 -220.5zM186 487q0 86 27 165t79 140.5t131 97.5t183 36 q109 0 186.5 -41t129 -103.5t75 -138t23.5 -145.5q0 -106 -36 -188.5t-94.5 -138.5t-135 -85t-158.5 -29q-80 0 -153.5 29t-130 84t-91.5 135t-35 182zM528 496q0 -33 20.5 -57.5t55.5 -24.5t56.5 24.5t21.5 57.5q0 37 -20.5 60.5t-55.5 23.5t-55.5 -24t-22.5 -60z" />
<glyph unicode="p" horiz-adv-x="1255" d="M119 -410l100 -20l9 20q10 19 22 51.5t21.5 72.5t9.5 81v381h4q61 -104 164.5 -152.5t220.5 -48.5q100 0 190 36t158.5 103.5t108.5 168t40 229.5q0 100 -33.5 190.5t-95 158t-148.5 107.5t-196 40q-154 0 -256 -64.5t-157 -165.5h-5l-8 205h-96q4 -80 6 -159t2 -158v-58 q0 -53 1 -150.5t1 -209.5v-232v-221q0 -49 -16 -98t-30.5 -76t-16.5 -31zM281 395v174q0 20 6 43t12 43q20 68 59 118t88.5 84t107.5 51.5t120 17.5q92 0 164.5 -34t124 -91.5t78 -133t26.5 -159.5q0 -102 -28.5 -186t-81 -142.5t-127 -90.5t-168.5 -32q-70 0 -130.5 21.5 t-108.5 56.5t-83 82t-49 100q-10 41 -10 78z" />
<glyph unicode="q" horiz-adv-x="1228" d="M88 469q0 -94 31 -178t84 -150q63 -76 154.5 -121t201.5 -45q76 0 138.5 18.5t111.5 48.5t84 67.5t55 78.5h4v-598h101v1155v7v34q0 10 1 18.5t1 18.5v2v19q0 67 6 139h-92l-6 -184h-5q-16 35 -45.5 71.5t-75.5 67.5t-106.5 50.5t-138.5 19.5q-84 0 -173 -30t-163 -94.5 t-121 -167t-47 -247.5zM188 483q0 100 30 182.5t83 140.5t126 89t161 31q70 0 127 -19.5t102 -52.5t76 -76t47 -92q12 -43 12 -96v-199q0 -23 -6 -49.5t-16 -48.5q-41 -104 -135.5 -170t-214.5 -66q-78 0 -140.5 21.5t-109.5 60.5q-72 61 -107 153.5t-35 190.5z" />
<glyph unicode="r" horiz-adv-x="655" d="M172 983q4 -80 6 -159t2 -158v-666h101v532q0 49 10 97q25 129 97.5 206.5t176.5 77.5h29q15 0 29 -4v92q-23 6 -48 7q-111 0 -187.5 -67t-113.5 -171h-6l-4 213h-92z" />
<glyph unicode="s" horiz-adv-x="835" d="M102 47q55 -33 126 -52.5t149 -19.5q84 0 149.5 21.5t111.5 59.5t69.5 90.5t23.5 111.5q0 111 -66.5 175.5t-201.5 111.5q-55 18 -97 36.5t-72 41t-45.5 53.5t-15.5 72q0 72 52.5 124t154.5 52q86 0 139.5 -23.5t77.5 -40.5l39 82q-43 29 -104.5 47.5t-132.5 18.5 q-80 0 -140.5 -22.5t-101.5 -61.5t-61.5 -88.5t-20.5 -100.5q0 -180 266 -266q117 -37 174.5 -85t57.5 -134q0 -76 -59.5 -133.5t-188.5 -57.5q-74 0 -137.5 22.5t-108.5 51.5z" />
<glyph unicode="t" horiz-adv-x="694" d="M20 903h127h74v-616q0 -70 14.5 -133.5t51.5 -104.5q61 -74 182 -74q49 0 87 8.5t65 18.5l-13 78q-23 -8 -53.5 -13.5t-75.5 -5.5q-90 0 -123.5 61.5t-33.5 151.5v629h290l21 80h-311v217l-101 -31v-186h-180z" />
<glyph unicode="u" horiz-adv-x="1200" d="M170 432q0 -158 42 -248t101.5 -137t122 -59.5t105.5 -12.5q74 0 135 19.5t108 51.5t82 72t58 81h4q0 -2 2 -19.5t6 -45.5t8 -50q8 -33 20 -68l11 -36l94 20q-23 53 -36 115.5t-13 122.5v745h-100v-596q0 -33 -7.5 -62.5t-17.5 -52.5q-39 -86 -127 -147.5t-201 -61.5 q-82 0 -138 29t-92 80t-51.5 123t-15.5 158v530h-100v-551z" />
<glyph unicode="v" horiz-adv-x="1015" d="M29 983l430 -983h90l448 983h-106l-262 -606q-35 -78 -64.5 -145.5t-54.5 -133.5h-4q-23 66 -50.5 130.5t-62.5 148.5l-256 606h-108z" />
<glyph unicode="w" horiz-adv-x="1605" d="M49 983l324 -983h90l215 541q35 92 66.5 179t56.5 173h4q23 -84 52.5 -170t64.5 -180l200 -543h90l357 983h-103l-196 -573q-31 -90 -55.5 -164t-40.5 -140h-5q-20 63 -44.5 138t-59.5 168l-209 571h-100l-219 -573q-35 -90 -61.5 -164t-47.5 -140h-4q-18 68 -40 140.5 t-50 163.5l-180 573h-105z" />
<glyph unicode="x" horiz-adv-x="962" d="M20 0h117l193 250q41 53 73.5 96t63.5 90h4q35 -45 67.5 -91t71.5 -95l197 -250h117l-396 506l377 477h-112l-189 -242q-35 -43 -65.5 -83t-61.5 -83h-4q-31 43 -60.5 82t-64.5 84l-188 242h-115l375 -479z" />
<glyph unicode="y" horiz-adv-x="983" d="M18 983l408 -913q14 -31 14 -45q0 -12 -12 -39q-47 -104 -98 -168t-90 -97q-47 -41 -95.5 -63.5t-85.5 -32.5l27 -84q16 4 66.5 22.5t113.5 65.5q49 35 91 83t84 115t85 156t95 205l348 795h-109l-274 -649q-25 -59 -45.5 -113.5t-36.5 -101.5h-4q-14 47 -36 103.5 t-44 103.5l-293 657h-109z" />
<glyph unicode="z" horiz-adv-x="901" d="M33 0h844v82h-713v4q31 35 59.5 67.5t57.5 67.5l587 692l2 70h-794v-82h672v-4q-35 -37 -66 -71.5t-61 -71.5l-588 -693v-61z" />
<glyph unicode="{" horiz-adv-x="552" d="M45 553q59 2 95 -13.5t55.5 -40t25.5 -53t6 -53.5q0 -41 -5 -82t-15 -82q-8 -41 -15.5 -82t-7.5 -81q0 -82 23.5 -138.5t65.5 -91.5t99.5 -50t123.5 -15h26v77h-39q-207 0 -207 209q0 41 6.5 82t14.5 82t14 81t6 81q0 72 -35.5 130t-95.5 77v4q59 18 95 73.5t36 129.5 q0 41 -6 81t-14 80.5t-14.5 80.5t-6.5 81q0 100 45.5 153.5t161.5 53.5h39v78h-26q-135 0 -223.5 -65.5t-88.5 -206.5q0 -43 6.5 -86t16.5 -86q8 -43 14 -86.5t6 -88.5q0 -31 -6 -60.5t-25.5 -52t-55.5 -35.5t-95 -11v-74z" />
<glyph unicode="|" horiz-adv-x="448" d="M180 -512h88v2048h-88v-2048z" />
<glyph unicode="}" horiz-adv-x="552" d="M31 -152v-77h26q66 0 123.5 15t99.5 50t65.5 91.5t23.5 138.5q0 41 -6.5 81.5t-14.5 81.5q-10 41 -16 82t-6 82q0 25 6 53.5t25.5 53t55.5 40t95 13.5v74q-59 -2 -95 11t-55.5 35.5t-25.5 52.5t-6 60q0 45 6 88.5t16 86.5q8 43 14.5 86t6.5 86q0 141 -88 206.5t-224 65.5 h-26v-78h39q117 0 161.5 -53t44.5 -154q0 -41 -6 -81t-14 -80.5t-14 -80.5t-6 -81q0 -74 35.5 -129.5t95.5 -73.5v-4q-59 -18 -95 -76.5t-36 -130.5q0 -41 6 -81t14 -81t14 -82t6 -82q0 -209 -206 -209h-39z" />
<glyph unicode="~" horiz-adv-x="1220" d="M86 446h80q0 92 38 138.5t109 46.5q70 0 137.5 -30t147.5 -64q66 -29 113 -46.5t83.5 -27.5t64.5 -14.5t54 -4.5q41 0 82 14.5t74 47.5t51.5 85t14.5 128h-78q0 -90 -34 -137t-103 -47q-74 0 -147 28.5t-157 63.5q-63 27 -107 45t-77 29.5t-60.5 15.5t-58.5 4 q-47 0 -89 -18.5t-74.5 -54.5t-50 -87t-13.5 -115z" />
<glyph unicode="&#xa1;" horiz-adv-x="440" d="M133 887q0 -37 23.5 -65.5t62.5 -28.5q41 0 64.5 28.5t23.5 65.5q0 41 -23.5 68.5t-62.5 27.5t-62.5 -27.5t-25.5 -68.5zM158 -410h125l-21 1000h-84z" />
<glyph unicode="&#xa2;" horiz-adv-x="1085" d="M123 662q0 -104 33.5 -189.5t87.5 -142.5q61 -66 139 -104t199 -48v-219h86v221q49 2 93 11.5t78.5 20.5t60.5 22.5t38 19.5l-29 74q-39 -20 -108.5 -44t-182.5 -24q-84 0 -156.5 28.5t-125.5 83t-85 130.5t-32 172q0 92 32 169t87 133t132 88t167 32q104 0 168.5 -22.5 t99.5 -45.5l39 82q-35 20 -106.5 43t-169.5 23v221h-86v-221q-98 -12 -182.5 -53.5t-145.5 -107t-96 -155.5t-35 -198z" />
<glyph unicode="&#xa3;" horiz-adv-x="1085" d="M141 0h858v86h-700v4q61 49 106.5 113.5t65.5 154.5q16 68 12 136.5t-10 138.5h322v80h-332q-10 53 -17.5 112.5t-7.5 137.5q0 143 64.5 226t202.5 83q78 0 129 -15.5t79 -31.5l33 78q-35 20 -90 36.5t-141 16.5q-82 0 -150.5 -29t-118 -81t-77 -123.5t-27.5 -157.5 q0 -68 8 -132.5t19 -119.5h-224v-80h232q8 -55 10 -95t2 -81q0 -117 -54 -216.5t-194 -177.5v-63z" />
<glyph unicode="&#xa5;" horiz-adv-x="1085" d="M55 1331l385 -655h-299v-76h338v-156h-338v-75h338v-369h96v369h338v75h-338v156h338v76h-295l412 655h-106l-301 -497q-27 -43 -48.5 -83t-33.5 -75h-9q-18 41 -36.5 72.5t-44.5 78.5l-287 504h-109z" />
<glyph unicode="&#xa6;" horiz-adv-x="448" d="M180 358v-716h88v716h-88zM180 666h88v716h-88v-716z" />
<glyph unicode="&#xa7;" horiz-adv-x="1085" d="M164 725q0 -117 85 -182.5t251 -120.5q86 -29 140 -55.5t87 -56t45 -62.5t12 -76q0 -98 -74.5 -153.5t-191.5 -55.5q-98 0 -161.5 27.5t-96.5 56.5l-45 -74q47 -39 122 -62.5t175 -23.5q76 0 142.5 20.5t115.5 58.5t76.5 93.5t27.5 124.5q0 59 -23.5 107.5t-47.5 70.5 q57 51 89 110.5t32 137.5q0 61 -22.5 107.5t-63.5 81.5t-97.5 60.5t-124.5 47.5q-66 20 -120 41t-92.5 45.5t-60 58t-21.5 83.5q0 39 19 73.5t51 59t75 39t92 14.5q86 0 150.5 -24.5t99.5 -51.5l43 74q-41 29 -112.5 52.5t-166.5 23.5q-74 0 -137 -20.5t-109 -57.5t-72 -87 t-26 -112q0 -47 19.5 -92t52.5 -68q-78 -59 -107.5 -120.5t-29.5 -112.5zM254 731q0 49 21.5 95t80.5 94q53 -33 120 -56.5t128 -44.5q133 -43 180 -99t47 -124q0 -109 -83 -186q-35 23 -85.5 44t-146.5 54q-80 27 -131 54.5t-81 55t-40 56t-10 57.5z" />
<glyph unicode="&#xa8;" d="M45 1239q0 -33 20.5 -58.5t57.5 -25.5q39 0 59.5 25.5t20.5 58.5q0 35 -21.5 59.5t-56.5 24.5t-57.5 -25.5t-22.5 -58.5zM412 1239q0 -33 20.5 -58.5t56.5 -25.5q39 0 59.5 25.5t20.5 58.5q0 35 -21.5 59.5t-55.5 24.5q-35 0 -57.5 -25.5t-22.5 -58.5z" />
<glyph unicode="&#xa9;" horiz-adv-x="1386" d="M82 696q0 -133 47 -248.5t130 -201.5t195.5 -135.5t241.5 -49.5t241 49.5t192.5 135.5t128 201.5t47.5 248.5q0 131 -47.5 246t-128 201t-192.5 135t-241 49t-241.5 -49t-195.5 -135t-130 -201t-47 -246zM166 688q0 123 41 227.5t111.5 181.5t168 121t211.5 44 q111 0 207 -43t167 -120t112 -180.5t41 -222.5q0 -123 -41 -227t-112 -180t-167 -119t-207 -43q-115 0 -212 43t-167.5 119t-111.5 178t-41 221zM358 684q0 -78 26 -145.5t73 -117.5t116.5 -79t157.5 -29q63 0 131 13.5t121 52.5l-20 59q-37 -27 -92.5 -42t-118.5 -15 q-78 0 -136.5 24.5t-97.5 66.5t-57.5 98.5t-18.5 119.5t18.5 118.5t55.5 97.5t94.5 66.5t137.5 24.5q78 0 129 -18t73 -33l21 64q-23 18 -82.5 36.5t-143.5 18.5q-78 0 -147.5 -26.5t-122.5 -77t-85 -121t-32 -156.5z" />
<glyph unicode="&#xaa;" horiz-adv-x="716" d="M76 731q0 -37 12 -72.5t39 -62.5t68 -43t98 -16q43 0 78 11t63.5 28.5t50 37t33.5 37.5h4l10 -104h82q-12 86 -12 162v194q0 51 -7 106.5t-32.5 100.5t-75 73.5t-133.5 28.5q-47 0 -108.5 -15t-114.5 -56l27 -62q41 33 86 45.5t92 12.5q61 0 97 -21.5t54.5 -48.5 t23.5 -51.5t5 -32.5v-25q-115 6 -197.5 -10t-136 -48t-80 -76t-26.5 -93zM166 731q0 51 30.5 83t80 49.5t112 22.5t127.5 3v-129q0 -10 -7 -26.5t-24 -37.5q-25 -31 -68.5 -58.5t-107.5 -27.5q-59 0 -101 31t-42 90z" />
<glyph unicode="&#xab;" horiz-adv-x="839" d="M61 516l322 -377h106l-321 377l319 377h-106zM369 516l321 -377h107l-322 377l320 377h-107z" />
<glyph unicode="&#xac;" horiz-adv-x="1220" d="M82 707h967v-439h90v520h-1057v-81z" />
<glyph unicode="&#xad;" d="M61 535h492v88h-492v-88z" />
<glyph unicode="&#xae;" horiz-adv-x="1044" d="M72 938q0 -98 35.5 -183t97 -146.5t143.5 -97.5t176 -36t176 36t143.5 97.5t96.5 146.5t35 183q0 96 -35 180t-96.5 145.5t-143.5 97.5t-176 36t-176 -36t-143.5 -97.5t-97 -145.5t-35.5 -180zM147 938q0 82 30 155.5t81 128t119.5 86t148.5 31.5t148.5 -31.5t119 -86 t80 -128t29.5 -157.5t-29.5 -157.5t-80 -128t-119 -86.5t-146.5 -32q-80 0 -149.5 32t-120.5 87.5t-81 129t-30 157.5zM369 670h65v227h62q53 0 80.5 -21.5t37.5 -74.5q18 -104 39 -131h70q-8 12 -16.5 39.5t-18.5 87.5q-18 113 -88 125v4q41 12 70.5 42.5t29.5 84.5 q0 70 -47 104q-23 16 -60.5 27.5t-90.5 11.5q-39 0 -69 -4t-64 -8v-514zM434 946v193q10 2 24.5 3t35.5 1q78 0 107.5 -32t29.5 -69q0 -53 -40 -74.5t-93 -21.5h-64z" />
<glyph unicode="&#xaf;" d="M86 1212h444v80h-444v-80z" />
<glyph unicode="&#xb0;" d="M61 1151q0 -45 16.5 -87t48.5 -75t77 -52t100 -19q45 0 89 16t80 49t58.5 79t22.5 105q0 45 -14.5 87t-45 76t-76.5 54.5t-108 20.5q-51 0 -96 -19.5t-79 -53.5t-53.5 -80t-19.5 -101zM141 1153q0 29 8.5 61.5t29 60.5t51 45t77.5 17q51 0 85 -18.5t52.5 -45t25.5 -57 t7 -53.5q0 -78 -48 -128t-122 -50q-72 0 -119 48t-47 120z" />
<glyph unicode="&#xb1;" horiz-adv-x="1220" d="M82 0h1057v82h-1057v-82zM82 655h483v-440h90v440h484v82h-484v424h-90v-424h-483v-82z" />
<glyph unicode="&#xb2;" horiz-adv-x="737" d="M117 547h528v74h-405v4l69 59q76 66 136.5 121t102.5 107.5t63.5 105.5t21.5 115q0 31 -12.5 68.5t-42 72.5t-81 58.5t-126.5 23.5q-70 0 -131.5 -25.5t-100.5 -62.5l31 -54q29 20 75 45t105 25q53 0 89 -15.5t58.5 -40t33 -56t10.5 -64.5q0 -37 -14.5 -74t-47.5 -80 t-85 -95t-128 -120l-149 -133v-59z" />
<glyph unicode="&#xb3;" horiz-adv-x="696" d="M88 596q29 -23 88.5 -41t136.5 -18q80 0 137.5 21.5t95.5 55t56.5 75.5t18.5 83q0 72 -50.5 130.5t-144.5 72.5v4q76 29 117 79t41 109q0 33 -11.5 66t-39 60.5t-72.5 45t-113 17.5q-70 0 -125 -21.5t-90 -44.5l33 -65q20 16 68.5 38.5t107.5 22.5q43 0 71.5 -12 t46 -29.5t26 -39t8.5 -40.5q0 -43 -21.5 -73.5t-53.5 -49t-70 -26.5t-70 -8h-70v-68h65q43 0 88.5 -8t82 -27.5t61 -52.5t24.5 -80q0 -20 -8 -49t-32.5 -54.5t-66.5 -44t-106 -18.5q-61 0 -117.5 20.5t-78.5 37.5z" />
<glyph unicode="&#xb4;" d="M242 1110h77l261 287h-152z" />
<glyph unicode="&#xb5;" horiz-adv-x="1200" d="M170 -410h100v549h4q31 -55 69 -88t77 -49t72.5 -21.5t56.5 -5.5q74 0 133 19.5t105.5 52.5t80 73t56.5 81h4l6 -201h94q-4 59 -6 118.5t-2 119.5v745h-100v-600q0 -61 -29 -118.5t-77 -101.5t-110.5 -72t-128.5 -28q-86 0 -144 30t-94 80t-51.5 114.5t-15.5 134.5v561 h-100v-1393z" />
<glyph unicode="&#xb6;" horiz-adv-x="1085" d="M72 932q0 -102 41 -177t106.5 -125t145 -75t157.5 -25h19v-634h88v1404h153v-1404h88v1472q-31 6 -82 10t-143 4q-172 0 -283.5 -41t-176 -106.5t-89 -145t-24.5 -157.5z" />
<glyph unicode="&#xb7;" horiz-adv-x="358" d="M92 582q0 -37 23.5 -66t62.5 -29q41 0 64.5 29t23.5 66q0 41 -23.5 68.5t-62.5 27.5t-62.5 -27.5t-25.5 -68.5z" />
<glyph unicode="&#xb8;" d="M109 -375q23 -14 58.5 -22.5t63.5 -8.5q86 0 144.5 37t58.5 123q0 57 -43 92t-100 43l78 111h-78l-109 -166q70 -6 117 -24.5t49 -65.5q2 -41 -29.5 -57.5t-72.5 -16.5q-29 0 -59.5 6.5t-55.5 20.5z" />
<glyph unicode="&#xb9;" d="M143 1266l19 -68l133 66h4v-717h84v799h-78z" />
<glyph unicode="&#xba;" horiz-adv-x="716" d="M16 866q0 -72 26 -131t72 -104t108.5 -69.5t135.5 -24.5q57 0 118 19t111 61t82.5 107t32.5 155q0 68 -23.5 128t-68.5 106t-108.5 72.5t-143.5 26.5q-63 0 -124.5 -23.5t-109.5 -68.5t-78 -109.5t-30 -144.5zM104 870q0 49 15.5 97.5t48.5 86.5t80 61.5t112 23.5 q68 0 116 -26t80 -64.5t46 -85t14 -89.5q0 -68 -21.5 -116.5t-57 -81.5t-81.5 -49.5t-96 -16.5q-45 0 -90 16.5t-81.5 49.5t-60.5 81t-24 113z" />
<glyph unicode="&#xbb;" horiz-adv-x="839" d="M43 893l322 -377l-320 -377h105l321 377l-321 377h-107zM350 893l322 -377l-320 -377h105l321 377l-321 377h-107z" />
<glyph unicode="&#xbc;" horiz-adv-x="1556" d="M104 1266l19 -68l133 66h4v-717h84v799h-78zM250 -25h84l825 1381h-84zM797 221h454v-221h84v221h144v70h-144v518h-71l-467 -535v-53zM901 291v2l291 336q12 16 26.5 35.5t32.5 42.5h4q-4 -23 -4 -48v-53v-315h-350z" />
<glyph unicode="&#xbd;" horiz-adv-x="1556" d="M74 1266l18 -68l133 66h4v-717h84v799h-77zM219 -25h84l825 1381h-84zM897 0h528v74h-405v4l70 59q76 66 136 121t102 107.5t63.5 105.5t21.5 115q0 31 -12 68.5t-42 72.5t-81 58.5t-127 23.5q-70 0 -131.5 -25.5t-99.5 -62.5l30 -53q29 20 75 44.5t105 24.5q53 0 89 -15 t58.5 -40t33 -56.5t10.5 -64.5q0 -37 -14.5 -73.5t-47 -79.5t-85 -95.5t-127.5 -119.5l-150 -134v-59z" />
<glyph unicode="&#xbe;" horiz-adv-x="1556" d="M68 596q29 -23 88 -41t137 -18q80 0 137 21.5t95 55t56.5 75.5t18.5 83q0 72 -50 130.5t-144 72.5v4q76 29 116.5 79t40.5 109q0 33 -11 66t-39 60.5t-74 45t-113 17.5q-70 0 -124.5 -22.5t-88.5 -45.5l32 -63q20 16 67.5 38.5t106.5 22.5q43 0 73 -12t48.5 -29.5 t25.5 -39t7 -40.5q0 -43 -21.5 -73.5t-53 -49t-69.5 -26.5t-71 -8h-70v-68h66q43 0 88 -8t82 -27.5t61.5 -52.5t24.5 -80q0 -20 -8 -49t-33 -54.5t-67 -44t-105 -18.5q-61 0 -117.5 20.5t-79.5 37.5zM348 -25h84l825 1381h-83zM827 221h455v-221h84v221h143v70h-143v518h-72 l-467 -535v-53zM932 291v2l293 336q12 14 25.5 33.5t31.5 44.5h4q-4 -23 -4 -48v-53v-315h-350z" />
<glyph unicode="&#xbf;" horiz-adv-x="839" d="M154 -143q0 -55 19.5 -109.5t60 -96.5t103 -68.5t148.5 -26.5q33 0 71 6t77 17t75.5 28.5t67.5 40.5l-39 73q-47 -37 -109.5 -56t-123.5 -19q-125 0 -183.5 62.5t-58.5 154.5q0 72 37 143.5t127 167.5q86 94 124 185.5t28 175.5l-9 63h-92l4 -74q4 -72 -27.5 -147.5 t-115.5 -167.5q-96 -102 -140 -183t-44 -169zM430 887q0 -37 23.5 -65.5t62.5 -28.5q41 0 64.5 28.5t23.5 65.5q0 41 -23.5 68.5t-62.5 27.5t-62.5 -27.5t-25.5 -68.5z" />
<glyph unicode="&#xc0;" horiz-adv-x="1310" d="M61 0h105l190 485h615l194 -485h105l-553 1380h-99zM391 569l197 492q25 61 42 110.5t34 102.5h4q16 -51 31.5 -100.5t43.5 -118.5l195 -486h-547zM391 1690l271 -236h81l-196 236h-156z" />
<glyph unicode="&#xc1;" horiz-adv-x="1310" d="M61 0h105l190 485h615l194 -485h105l-553 1380h-99zM391 569l197 492q25 61 42 110.5t34 102.5h4q16 -51 31.5 -100.5t43.5 -118.5l195 -486h-547zM588 1454h82l270 236h-156z" />
<glyph unicode="&#xc2;" horiz-adv-x="1310" d="M61 0h105l190 485h615l194 -485h105l-553 1380h-99zM391 569l197 492q25 61 42 110.5t34 102.5h4q16 -51 31.5 -100.5t43.5 -118.5l195 -486h-547zM412 1454h102l156 162h4l155 -162h111l-231 236h-74z" />
<glyph unicode="&#xc3;" horiz-adv-x="1310" d="M61 0h105l190 485h615l194 -485h105l-553 1380h-99zM391 569l197 492q25 61 42 110.5t34 102.5h4q16 -51 31.5 -100.5t43.5 -118.5l195 -486h-547zM410 1464h63q4 39 16.5 65.5t40.5 26.5q29 0 55.5 -12t61.5 -28q43 -23 72 -32t57 -9q66 0 95.5 45.5t29.5 121.5h-63 q-4 -57 -19.5 -71.5t-42.5 -14.5q-29 0 -55.5 9.5t-52.5 25.5q-41 23 -72 34t-61 11q-29 0 -52.5 -14t-40 -38.5t-24.5 -55.5t-8 -64z" />
<glyph unicode="&#xc4;" horiz-adv-x="1310" d="M61 0h105l190 485h615l194 -485h105l-553 1380h-99zM391 569l197 492q25 61 42 110.5t34 102.5h4q16 -51 31.5 -100.5t43.5 -118.5l195 -486h-547zM403 1567q0 -33 20.5 -58.5t57.5 -25.5q39 0 59.5 25.5t20.5 58.5q0 35 -21.5 59.5t-56.5 24.5t-57.5 -26t-22.5 -58z M770 1567q0 -33 20.5 -58.5t57.5 -25.5q39 0 59.5 25.5t20.5 58.5q0 35 -21.5 59.5t-56.5 24.5t-57.5 -26t-22.5 -58z" />
<glyph unicode="&#xc5;" horiz-adv-x="1310" d="M61 0h105l190 485h615l192 -485h107l-537 1339q61 14 99 57.5t38 102.5q0 76 -52 126t-142 50q-92 0 -144.5 -52t-52.5 -124q0 -53 33 -96t92 -60zM387 569l217 541q18 45 34.5 91t23.5 73h4q16 -47 34.5 -105.5t36.5 -103.5l201 -496h-551zM557 1499q0 47 28.5 82 t88.5 35q57 0 88 -33t31 -80q0 -45 -31 -77.5t-88 -32.5q-55 0 -86 33.5t-31 72.5z" />
<glyph unicode="&#xc6;" horiz-adv-x="1652" d="M-20 0h104l303 571h485l82 -571h615v84h-531l-86 600h547v84h-559l-74 528h668v84h-817zM430 653l232 443q29 55 56 109.5t48 99.5h8q4 -51 13.5 -118t15.5 -110l59 -424h-432z" />
<glyph unicode="&#xc7;" horiz-adv-x="1310" d="M78 684q0 -164 51 -289t138 -213t201 -137t239 -63l-95 -148q70 -8 117 -27.5t47 -64.5q0 -35 -29.5 -53.5t-70.5 -18.5q-66 0 -115 27l-22 -74q23 -10 58.5 -19.5t70.5 -9.5q82 0 140 36t58 116q0 57 -42 95t-101 48l61 86q166 0 281 25.5t174 54.5l-31 80 q-72 -35 -167 -54.5t-197 -19.5q-164 0 -287 48.5t-207 131.5t-126 195.5t-42 239.5q0 139 44 258t131 205t215 134t296 48q98 0 185.5 -19.5t148.5 -50.5l33 84q-35 16 -125 43t-248 27q-195 0 -341 -62.5t-244.5 -164t-148.5 -230.5t-50 -264z" />
<glyph unicode="&#xc8;" horiz-adv-x="1046" d="M180 0h785v84h-684v602h614v84h-614v526h649v84h-750v-1380zM322 1690l270 -236h82l-197 236h-155z" />
<glyph unicode="&#xc9;" horiz-adv-x="1046" d="M180 0h785v84h-684v602h614v84h-614v526h649v84h-750v-1380zM477 1454h82l270 236h-155z" />
<glyph unicode="&#xca;" horiz-adv-x="1046" d="M180 0h785v84h-684v602h614v84h-614v526h649v84h-750v-1380zM285 1454h102l156 162h4l155 -162h111l-231 236h-74z" />
<glyph unicode="&#xcb;" horiz-adv-x="1046" d="M180 0h785v84h-684v602h614v84h-614v526h649v84h-750v-1380zM303 1567q0 -33 20.5 -58.5t57.5 -25.5q39 0 59.5 25.5t20.5 58.5q0 35 -21.5 59.5t-56.5 24.5t-57.5 -26t-22.5 -58zM670 1567q0 -33 20.5 -58.5t57.5 -25.5q39 0 59 25.5t20 58.5q0 35 -21.5 59.5 t-55.5 24.5q-35 0 -57.5 -26t-22.5 -58z" />
<glyph unicode="&#xcc;" horiz-adv-x="460" d="M-35 1690l271 -236h81l-196 236h-156zM180 0h101v1380h-101v-1380z" />
<glyph unicode="&#xcd;" horiz-adv-x="460" d="M152 1454h81l271 236h-156zM180 0h101v1380h-101v-1380z" />
<glyph unicode="&#xce;" horiz-adv-x="460" d="M-35 1454h103l155 162h4l156 -162h111l-232 236h-74zM180 0h101v1380h-101v-1380z" />
<glyph unicode="&#xcf;" horiz-adv-x="460" d="M-33 1567q0 -33 20.5 -58.5t57.5 -25.5q39 0 59.5 25.5t20.5 58.5q0 35 -21.5 59.5t-56.5 24.5t-57.5 -26t-22.5 -58zM180 0h101v1380h-101v-1380zM334 1567q0 -33 20.5 -58.5t57.5 -25.5q39 0 59.5 25.5t20.5 58.5q0 35 -21.5 59.5t-56.5 24.5t-57.5 -26t-22.5 -58z" />
<glyph unicode="&#xd0;" horiz-adv-x="1484" d="M-12 649h192v-649q90 -8 177 -10t182 -2q233 0 404 61.5t271 167.5q109 117 150 251t41 253q0 139 -40 250.5t-126 206.5q-98 106 -261 163.5t-384 57.5q-117 0 -219.5 -9.5t-194.5 -21.5v-637h-192v-82zM281 84v565h489v82h-489v557q53 10 128.5 18.5t176.5 8.5 q188 0 324.5 -45t223.5 -124t128 -186.5t41 -234.5q0 -137 -44.5 -256t-134.5 -207t-231 -139t-338 -51q-84 0 -154.5 2t-119.5 10z" />
<glyph unicode="&#xd1;" horiz-adv-x="1445" d="M180 0h99v737q0 154 -2.5 272.5t-10.5 235.5l6 4q55 -92 132 -199.5t165 -228.5l605 -821h92v1380h-99v-712q0 -160 3.5 -288t13.5 -249l-4 -4q-53 92 -120 183t-161 220l-625 850h-94v-1380zM518 1464h64q4 39 16 65.5t41 26.5t55.5 -12t61.5 -28q43 -23 71.5 -32 t57.5 -9q66 0 95.5 45.5t29.5 121.5h-64q-4 -57 -19.5 -71.5t-41.5 -14.5q-29 0 -55.5 9.5t-53.5 25.5q-41 23 -71.5 34t-61.5 11q-29 0 -52.5 -14t-39.5 -38.5t-24.5 -55.5t-8.5 -64z" />
<glyph unicode="&#xd2;" horiz-adv-x="1542" d="M78 672q0 -152 52 -280t144.5 -220t218 -144.5t273.5 -52.5q135 0 261 47.5t223.5 140.5t155.5 230.5t58 315.5q0 150 -50 276.5t-141 219.5t-217 146.5t-278 53.5q-147 0 -275 -53.5t-222.5 -150.5t-148.5 -232t-54 -297zM180 676q0 127 37 244.5t111.5 207t185.5 142.5 t258 53t257 -55.5t182.5 -144.5t109.5 -199.5t37 -223.5q0 -137 -41 -254.5t-118 -203.5t-187.5 -135.5t-247.5 -49.5q-135 0 -243.5 51.5t-183.5 136.5t-116 196.5t-41 234.5zM487 1690l271 -236h82l-197 236h-156z" />
<glyph unicode="&#xd3;" horiz-adv-x="1542" d="M78 672q0 -152 52 -280t144.5 -220t218 -144.5t273.5 -52.5q135 0 261 47.5t223.5 140.5t155.5 230.5t58 315.5q0 150 -50 276.5t-141 219.5t-217 146.5t-278 53.5q-147 0 -275 -53.5t-222.5 -150.5t-148.5 -232t-54 -297zM180 676q0 127 37 244.5t111.5 207t185.5 142.5 t258 53t257 -55.5t182.5 -144.5t109.5 -199.5t37 -223.5q0 -137 -41 -254.5t-118 -203.5t-187.5 -135.5t-247.5 -49.5q-135 0 -243.5 51.5t-183.5 136.5t-116 196.5t-41 234.5zM715 1454h82l270 236h-156z" />
<glyph unicode="&#xd4;" horiz-adv-x="1542" d="M78 672q0 -152 52 -280t144.5 -220t218 -144.5t273.5 -52.5q135 0 261 47.5t223.5 140.5t155.5 230.5t58 315.5q0 150 -50 276.5t-141 219.5t-217 146.5t-278 53.5q-147 0 -275 -53.5t-222.5 -150.5t-148.5 -232t-54 -297zM180 676q0 127 37 244.5t111.5 207t185.5 142.5 t258 53t257 -55.5t182.5 -144.5t109.5 -199.5t37 -223.5q0 -137 -41 -254.5t-118 -203.5t-187.5 -135.5t-247.5 -49.5q-135 0 -243.5 51.5t-183.5 136.5t-116 196.5t-41 234.5zM508 1454h102l156 162h4l156 -162h110l-231 236h-74z" />
<glyph unicode="&#xd5;" horiz-adv-x="1542" d="M78 672q0 -152 52 -280t144.5 -220t218 -144.5t273.5 -52.5q135 0 261 47.5t223.5 140.5t155.5 230.5t58 315.5q0 150 -50 276.5t-141 219.5t-217 146.5t-278 53.5q-147 0 -275 -53.5t-222.5 -150.5t-148.5 -232t-54 -297zM180 676q0 127 37 244.5t111.5 207t185.5 142.5 t258 53t257 -55.5t182.5 -144.5t109.5 -199.5t37 -223.5q0 -137 -41 -254.5t-118 -203.5t-187.5 -135.5t-247.5 -49.5q-135 0 -243.5 51.5t-183.5 136.5t-116 196.5t-41 234.5zM526 1464h64q4 39 16 65.5t41 26.5t55.5 -12t61.5 -28q43 -23 71.5 -32t57.5 -9q66 0 95.5 45.5 t29.5 121.5h-64q-4 -57 -19 -71.5t-42 -14.5q-29 0 -55.5 9.5t-53.5 25.5q-41 23 -71.5 34t-61.5 11q-29 0 -52.5 -14t-39.5 -38.5t-24.5 -55.5t-8.5 -64z" />
<glyph unicode="&#xd6;" horiz-adv-x="1542" d="M78 672q0 -152 52 -280t144.5 -220t218 -144.5t273.5 -52.5q135 0 261 47.5t223.5 140.5t155.5 230.5t58 315.5q0 150 -50 276.5t-141 219.5t-217 146.5t-278 53.5q-147 0 -275 -53.5t-222.5 -150.5t-148.5 -232t-54 -297zM180 676q0 127 37 244.5t111.5 207t185.5 142.5 t258 53t257 -55.5t182.5 -144.5t109.5 -199.5t37 -223.5q0 -137 -41 -254.5t-118 -203.5t-187.5 -135.5t-247.5 -49.5q-135 0 -243.5 51.5t-183.5 136.5t-116 196.5t-41 234.5zM510 1567q0 -33 20.5 -58.5t57.5 -25.5q39 0 59.5 25.5t20.5 58.5q0 35 -21.5 59.5t-56.5 24.5 t-57.5 -26t-22.5 -58zM877 1567q0 -33 20.5 -58.5t56.5 -25.5q39 0 59.5 25.5t20.5 58.5q0 35 -21.5 59.5t-56.5 24.5t-57 -26t-22 -58z" />
<glyph unicode="&#xd7;" horiz-adv-x="1220" d="M82 61l65 -61l463 473l463 -473l66 61l-465 478l465 475l-66 63l-463 -473l-463 473l-65 -63l465 -475z" />
<glyph unicode="&#xd8;" horiz-adv-x="1542" d="M78 676q0 -147 53 -277.5t148 -224.5l-152 -178l59 -53l152 178q90 -70 200.5 -108t237.5 -38q125 0 249 45.5t221 136.5t157.5 228.5t60.5 323.5q0 147 -52 277t-148 222l151 178l-65 52l-148 -174q-182 141 -420 141q-145 0 -274 -52.5t-224.5 -148.5t-150.5 -230 t-55 -298zM182 692q0 117 38 230.5t112 202.5t185.5 143.5t258.5 54.5q113 0 204 -35t165 -94l-803 -946l-4 -4q-66 84 -111 187.5t-45 260.5zM397 188l803 949h6q2 -2 3 -4.5t3 -4.5q82 -102 115 -209.5t33 -218.5q0 -133 -40 -249.5t-117 -203.5t-186.5 -138.5 t-246.5 -51.5q-127 0 -213 35t-160 96z" />
<glyph unicode="&#xd9;" horiz-adv-x="1415" d="M180 582q0 -170 42 -286t113 -186.5t163 -102.5t192 -32q111 0 209 34t173 107.5t119 191.5t44 284v788h-100v-796q0 -137 -33 -235.5t-91.5 -163t-138 -95.5t-176.5 -31q-86 0 -161.5 30t-132 92.5t-89 161.5t-32.5 241v796h-101v-798zM444 1690l271 -236h82l-197 236 h-156z" />
<glyph unicode="&#xda;" horiz-adv-x="1415" d="M180 582q0 -170 42 -286t113 -186.5t163 -102.5t192 -32q111 0 209 34t173 107.5t119 191.5t44 284v788h-100v-796q0 -137 -33 -235.5t-91.5 -163t-138 -95.5t-176.5 -31q-86 0 -161.5 30t-132 92.5t-89 161.5t-32.5 241v796h-101v-798zM641 1454h82l270 236h-155z" />
<glyph unicode="&#xdb;" horiz-adv-x="1415" d="M180 582q0 -170 42 -286t113 -186.5t163 -102.5t192 -32q111 0 209 34t173 107.5t119 191.5t44 284v788h-100v-796q0 -137 -33 -235.5t-91.5 -163t-138 -95.5t-176.5 -31q-86 0 -161.5 30t-132 92.5t-89 161.5t-32.5 241v796h-101v-798zM455 1454h102l156 162h4l155 -162 h111l-231 236h-74z" />
<glyph unicode="&#xdc;" horiz-adv-x="1415" d="M180 582q0 -170 42 -286t113 -186.5t163 -102.5t192 -32q111 0 209 34t173 107.5t119 191.5t44 284v788h-100v-796q0 -137 -33 -235.5t-91.5 -163t-138 -95.5t-176.5 -31q-86 0 -161.5 30t-132 92.5t-89 161.5t-32.5 241v796h-101v-798zM446 1567q0 -33 20.5 -58.5 t57.5 -25.5q39 0 59.5 25.5t20.5 58.5q0 35 -21.5 59.5t-56.5 24.5t-57.5 -26t-22.5 -58zM813 1567q0 -33 20.5 -58.5t57.5 -25.5q39 0 59.5 25.5t20.5 58.5q0 35 -21.5 59.5t-56.5 24.5t-57.5 -26t-22.5 -58z" />
<glyph unicode="&#xdd;" horiz-adv-x="1107" d="M25 1380l483 -790v-590h100v586l514 794h-114l-269 -430q-51 -82 -94 -152.5t-78 -135.5h-4q-39 72 -79 138t-89 150l-256 430h-114zM508 1454h82l270 236h-155z" />
<glyph unicode="&#xde;" horiz-adv-x="1122" d="M180 0h99v346q45 -8 96 -10t98 -2q123 0 223.5 28.5t172 84t110.5 134.5t39 179q0 72 -28.5 135t-78.5 111q-63 59 -158.5 88.5t-228.5 29.5q-53 0 -119.5 -5t-125.5 -17v278h-99v-1380zM279 434v582q33 10 98 17t147 7q78 0 149.5 -14t126 -49t86.5 -92.5t32 -143.5 q0 -150 -114 -236.5t-325 -86.5q-47 0 -98 3t-102 13z" />
<glyph unicode="&#xdf;" horiz-adv-x="1142" d="M119 -412l100 -20q2 4 15.5 35.5t30 95t16.5 137.5v1122q0 233 71.5 341t227.5 108q129 0 195.5 -72.5t66.5 -191.5q0 -33 -5.5 -56.5t-11.5 -39.5q-197 -96 -196 -250q0 -74 44 -134.5t128 -132.5q72 -61 105.5 -118.5t33.5 -135.5q0 -43 -15.5 -82.5t-47 -70.5 t-78.5 -48.5t-111 -17.5q-53 0 -104.5 14.5t-106.5 41.5l-28 -84q55 -29 115.5 -41.5t121.5 -12.5q84 0 149.5 25t109.5 68t67.5 100t23.5 125q0 55 -15 100t-40 82t-56.5 68.5t-66.5 64.5q-59 55 -95 97.5t-36 107.5q0 59 45 103.5t121 74.5q14 23 29.5 65t15.5 101 q0 80 -26.5 142.5t-72.5 104.5t-107.5 64.5t-131.5 22.5q-84 0 -151.5 -21.5t-124.5 -72.5q-33 -29 -59.5 -68t-45 -92t-29 -123t-10.5 -160v-1118q0 -70 -16.5 -128t-29.5 -87t-15 -33z" />
<glyph unicode="&#xe0;" horiz-adv-x="1015" d="M86 246q0 -55 25.5 -112.5t83.5 -98.5q29 -20 63.5 -34.5t77.5 -20.5h4q14 -2 28.5 -3.5t30.5 -1.5q68 0 125.5 16.5t102.5 43t77.5 57.5t51.5 60h4l37 -172l92 20q-10 59 -23.5 118.5t-13.5 119.5v356q0 57 -11.5 130t-49 135.5t-111.5 105.5t-199 43q-41 0 -84 -7 l3 -17t10 -64q16 2 31.5 3t31.5 1q98 0 153.5 -35t83 -83t35 -98.5t7.5 -76.5v-23q-344 4 -505 -95t-161 -267zM193 264q0 86 51 138.5t131 80t179 35.5t198 6v-209q0 -27 -13 -57q-14 -33 -40.5 -68.5t-67.5 -64.5t-96.5 -48.5t-126.5 -19.5q-86 0 -150.5 51.5t-64.5 155.5 zM219 1397l260 -287h78l-186 287h-152z" />
<glyph unicode="&#xe1;" horiz-adv-x="1015" d="M86 246q0 -55 25.5 -112.5t83.5 -98.5q29 -20 63.5 -34.5t77.5 -20.5h4q14 -2 28.5 -3.5t30.5 -1.5q68 0 125.5 16.5t102.5 43t77.5 57.5t51.5 60h4l37 -172l92 20q-10 59 -23.5 118.5t-13.5 119.5v356q0 57 -11.5 130t-49 135.5t-111.5 105.5t-199 43q-41 0 -84 -7 l3 -17t10 -64q16 2 31.5 3t31.5 1q98 0 153.5 -35t83 -83t35 -98.5t7.5 -76.5v-23q-344 4 -505 -95t-161 -267zM193 264q0 86 51 138.5t131 80t179 35.5t198 6v-209q0 -27 -13 -57q-14 -33 -40.5 -68.5t-67.5 -64.5t-96.5 -48.5t-126.5 -19.5q-86 0 -150.5 51.5t-64.5 155.5 zM412 1110h77l261 287h-152z" />
<glyph unicode="&#xe2;" horiz-adv-x="1015" d="M86 246q0 -55 25.5 -112.5t83.5 -98.5q29 -20 63.5 -34.5t77.5 -20.5h4q14 -2 28.5 -3.5t30.5 -1.5q68 0 125.5 16.5t102.5 43t77.5 57.5t51.5 60h4l37 -172l92 20q-10 59 -23.5 118.5t-13.5 119.5v356q0 57 -11.5 130t-49 135.5t-111.5 105.5t-199 43q-41 0 -84 -7 l3 -17t10 -64q16 2 31.5 3t31.5 1q98 0 153.5 -35t83 -83t35 -98.5t7.5 -76.5v-23q-344 4 -505 -95t-161 -267zM193 264q0 86 51 138.5t131 80t179 35.5t198 6v-209q0 -27 -13 -57q-14 -33 -40.5 -68.5t-67.5 -64.5t-96.5 -48.5t-126.5 -19.5q-86 0 -150.5 51.5t-64.5 155.5 zM258 1110h96l138 209h4l137 -209h104l-205 287h-77z" />
<glyph unicode="&#xe3;" horiz-adv-x="1015" d="M86 246q0 -55 25.5 -112.5t83.5 -98.5q29 -20 63.5 -34.5t77.5 -20.5h4q14 -2 28.5 -3.5t30.5 -1.5q68 0 125.5 16.5t102.5 43t77.5 57.5t51.5 60h4l37 -172l92 20q-10 59 -23.5 118.5t-13.5 119.5v356q0 57 -11.5 130t-49 135.5t-111.5 105.5t-199 43q-41 0 -84 -7 l3 -17t10 -64q16 2 31.5 3t31.5 1q98 0 153.5 -35t83 -83t35 -98.5t7.5 -76.5v-23q-344 4 -505 -95t-161 -267zM193 264q0 86 51 138.5t131 80t179 35.5t198 6v-209q0 -27 -13 -57q-14 -33 -40.5 -68.5t-67.5 -64.5t-96.5 -48.5t-126.5 -19.5q-86 0 -150.5 51.5t-64.5 155.5 zM272 1163h64q4 41 17.5 67.5t39.5 26.5q23 0 46.5 -9t60.5 -29q35 -18 64.5 -30.5t58.5 -12.5q66 0 94 46t28 124h-61q-4 -53 -17.5 -71t-33.5 -18q-29 0 -52.5 9.5t-48.5 21.5q-47 23 -76.5 37t-64.5 14q-59 0 -90 -54t-29 -122z" />
<glyph unicode="&#xe4;" horiz-adv-x="1015" d="M86 246q0 -55 25.5 -112.5t83.5 -98.5q29 -20 63.5 -34.5t77.5 -20.5h4q14 -2 28.5 -3.5t30.5 -1.5q68 0 125.5 16.5t102.5 43t77.5 57.5t51.5 60h4l37 -172l92 20q-10 59 -23.5 118.5t-13.5 119.5v356q0 57 -11.5 130t-49 135.5t-111.5 105.5t-199 43q-41 0 -84 -7 l3 -17t10 -64q16 2 31.5 3t31.5 1q98 0 153.5 -35t83 -83t35 -98.5t7.5 -76.5v-23q-344 4 -505 -95t-161 -267zM193 264q0 86 51 138.5t131 80t179 35.5t198 6v-209q0 -27 -13 -57q-14 -33 -40.5 -68.5t-67.5 -64.5t-96.5 -48.5t-126.5 -19.5q-86 0 -150.5 51.5t-64.5 155.5 zM246 1239q0 -33 20.5 -58.5t57.5 -25.5q39 0 59 25.5t20 58.5q0 35 -21.5 59.5t-55.5 24.5q-35 0 -57.5 -25.5t-22.5 -58.5zM612 1239q0 -33 20.5 -58.5t57.5 -25.5q39 0 59.5 25.5t20.5 58.5q0 35 -21.5 59.5t-56.5 24.5t-57.5 -25.5t-22.5 -58.5z" />
<glyph unicode="&#xe5;" horiz-adv-x="1015" d="M86 246q0 -55 25.5 -112.5t83.5 -98.5q29 -20 63.5 -34.5t77.5 -20.5h4q14 -2 28.5 -3.5t30.5 -1.5q68 0 125.5 16.5t102.5 43t77.5 57.5t51.5 60h4l37 -172l92 20q-10 59 -23.5 118.5t-13.5 119.5v356q0 57 -11.5 130t-49 135.5t-111.5 105.5t-199 43q-41 0 -84 -7 l3 -17t10 -64q16 2 31.5 3t31.5 1q98 0 153.5 -35t83 -83t35 -98.5t7.5 -76.5v-23q-344 4 -505 -95t-161 -267zM193 264q0 86 51 138.5t131 80t179 35.5t198 6v-209q0 -27 -13 -57q-14 -33 -40.5 -68.5t-67.5 -64.5t-96.5 -48.5t-126.5 -19.5q-86 0 -150.5 51.5t-64.5 155.5 zM309 1276q0 -78 55.5 -131t139.5 -53q37 0 71.5 14t61.5 38.5t42 58.5t15 73q0 80 -54 134t-136 54q-84 0 -139.5 -55t-55.5 -133zM391 1276q0 53 30 90t81 37t82.5 -36t31.5 -89q0 -51 -31.5 -88t-82.5 -37q-47 0 -79 38t-32 85z" />
<glyph unicode="&#xe6;" horiz-adv-x="1710" d="M88 236q0 -43 16.5 -88.5t53.5 -84t96 -63.5t143 -25q139 0 251 65.5t159 195.5h2q59 -119 176 -190t277 -71q37 0 70.5 2.5t62.5 6.5l-9 84q-49 -6 -114 -7q-88 0 -164 27t-132 81t-88 134t-32 189h817q4 12 4 24v37q0 49 -15 126t-61.5 150.5t-130.5 126t-221 52.5 q-141 0 -252.5 -65.5t-175.5 -188.5h-2q-12 53 -36.5 99t-66.5 81t-102.5 54.5t-142.5 19.5q-49 0 -136 -17.5t-177 -77.5l32 -71q47 37 127 59.5t154 22.5q98 0 154.5 -41t85 -92.5t36 -99.5t7.5 -60v-41q-172 4 -298 -20.5t-208 -71.5t-121 -115t-39 -147zM190 246 q0 90 53.5 143t136.5 81t182.5 35t191.5 5v-154q0 -43 -13 -82q-14 -41 -40.5 -80.5t-68.5 -70.5t-97.5 -48.5t-126.5 -17.5q-92 0 -155 51.5t-63 137.5zM862 571q8 55 33 118t69 115t111.5 87t161.5 35q111 0 177.5 -41t102 -98.5t46 -117t10.5 -98.5h-711z" />
<glyph unicode="&#xe7;" horiz-adv-x="1019" d="M88 477q0 -98 33 -185t92 -153.5t144 -108.5t188 -50l-96 -146q70 -6 116.5 -24.5t48.5 -65.5q2 -41 -30.5 -57.5t-73.5 -16.5q-68 0 -113 27l-22 -72q23 -14 59.5 -22.5t63.5 -8.5q86 0 144 37t58 123q0 57 -43 92t-100 43l61 86q123 2 206 29t114 43l-29 80 q-43 -18 -111.5 -42t-174.5 -24q-94 0 -173 31t-137.5 87.5t-91.5 135t-33 174.5q0 90 30 169t86 137.5t140 92.5t195 34q96 0 161.5 -20.5t108.5 -45.5l37 82q-31 23 -109.5 46.5t-189.5 23.5q-119 0 -221 -37t-177 -105.5t-118 -167t-43 -221.5z" />
<glyph unicode="&#xe8;" horiz-adv-x="1099" d="M88 467q0 -106 36 -196.5t101.5 -156t158.5 -102.5t208 -37q37 0 70.5 2.5t62.5 6.5l-8 84q-49 -6 -115 -7q-88 0 -164 27t-132 81t-88 134t-32 189h818q4 12 4 24v37q0 49 -15.5 126t-61.5 150.5t-130 126t-221 52.5q-104 0 -194.5 -38t-156 -107.5t-103.5 -170 t-38 -225.5zM193 571q8 55 32.5 118t68.5 115t111.5 87t161.5 35q111 0 177.5 -41t102.5 -98.5t46 -117t10 -98.5h-710zM354 1397l260 -287h78l-186 287h-152z" />
<glyph unicode="&#xe9;" horiz-adv-x="1099" d="M88 467q0 -106 36 -196.5t101.5 -156t158.5 -102.5t208 -37q37 0 70.5 2.5t62.5 6.5l-8 84q-49 -6 -115 -7q-88 0 -164 27t-132 81t-88 134t-32 189h818q4 12 4 24v37q0 49 -15.5 126t-61.5 150.5t-130 126t-221 52.5q-104 0 -194.5 -38t-156 -107.5t-103.5 -170 t-38 -225.5zM193 571q8 55 32.5 118t68.5 115t111.5 87t161.5 35q111 0 177.5 -41t102.5 -98.5t46 -117t10 -98.5h-710zM496 1110h77l261 287h-152z" />
<glyph unicode="&#xea;" horiz-adv-x="1099" d="M88 467q0 -106 36 -196.5t101.5 -156t158.5 -102.5t208 -37q37 0 70.5 2.5t62.5 6.5l-8 84q-49 -6 -115 -7q-88 0 -164 27t-132 81t-88 134t-32 189h818q4 12 4 24v37q0 49 -15.5 126t-61.5 150.5t-130 126t-221 52.5q-104 0 -194.5 -38t-156 -107.5t-103.5 -170 t-38 -225.5zM193 571q8 55 32.5 118t68.5 115t111.5 87t161.5 35q111 0 177.5 -41t102.5 -98.5t46 -117t10 -98.5h-710zM340 1110h96l137 209h5l137 -209h104l-205 287h-77z" />
<glyph unicode="&#xeb;" horiz-adv-x="1099" d="M88 467q0 -106 36 -196.5t101.5 -156t158.5 -102.5t208 -37q37 0 70.5 2.5t62.5 6.5l-8 84q-49 -6 -115 -7q-88 0 -164 27t-132 81t-88 134t-32 189h818q4 12 4 24v37q0 49 -15.5 126t-61.5 150.5t-130 126t-221 52.5q-104 0 -194.5 -38t-156 -107.5t-103.5 -170 t-38 -225.5zM193 571q8 55 32.5 118t68.5 115t111.5 87t161.5 35q111 0 177.5 -41t102.5 -98.5t46 -117t10 -98.5h-710zM330 1239q0 -33 20.5 -58.5t57.5 -25.5q39 0 59 25.5t20 58.5q0 35 -21.5 59.5t-55.5 24.5q-35 0 -57.5 -25.5t-22.5 -58.5zM696 1239q0 -33 20.5 -58.5 t57.5 -25.5q39 0 59.5 25.5t20.5 58.5q0 35 -21.5 59.5t-56.5 24.5t-57.5 -25.5t-22.5 -58.5z" />
<glyph unicode="&#xec;" horiz-adv-x="460" d="M-49 1397l260 -287h78l-187 287h-151zM180 0h101v983h-101v-983z" />
<glyph unicode="&#xed;" horiz-adv-x="460" d="M166 1110h78l260 287h-152zM180 0h101v983h-101v-983z" />
<glyph unicode="&#xee;" horiz-adv-x="460" d="M-8 1110h96l137 209h4l138 -209h104l-205 287h-78zM180 0h101v983h-101v-983z" />
<glyph unicode="&#xef;" horiz-adv-x="460" d="M-31 1239q0 -33 20.5 -58.5t57.5 -25.5q39 0 59.5 25.5t20.5 58.5q0 35 -21.5 59.5t-56.5 24.5t-57.5 -25.5t-22.5 -58.5zM180 0h101v983h-101v-983zM336 1239q0 -33 20.5 -58.5t57.5 -25.5q39 0 59.5 25.5t20.5 58.5q0 35 -21.5 59.5t-56.5 24.5t-57.5 -25.5 t-22.5 -58.5z" />
<glyph unicode="&#xf0;" horiz-adv-x="1183" d="M90 477q0 -109 36 -200t100.5 -158.5t155.5 -105.5t200 -38q92 0 182 31t162.5 96.5t118 168t45.5 247.5q0 111 -24 209t-69 188q-53 106 -129.5 197.5t-175.5 165.5l232 108l-33 76l-270 -131q-68 47 -145 88t-154 72l-41 -82q68 -25 134 -56.5t115 -66.5l-276 -129 l29 -72l323 150q113 -84 193 -174t137 -191l-4 -6q-88 88 -172 116t-172 28q-92 0 -181.5 -37t-160 -105.5t-113.5 -167t-43 -221.5zM188 481q0 76 24 155t73 143.5t124.5 105.5t178.5 41q106 0 178 -37t119 -82q55 -53 77.5 -120.5t22.5 -182.5q0 -109 -31.5 -193t-87 -140 t-129 -85t-159.5 -29q-74 0 -143.5 29t-124 82t-88.5 132t-34 181z" />
<glyph unicode="&#xf1;" horiz-adv-x="1210" d="M172 983q4 -59 6 -118.5t2 -119.5v-745h101v600q0 23 5 47.5t11 40.5q16 47 49 89t76 75t96 51.5t113 18.5q84 0 143.5 -30t96 -80t53 -115.5t16.5 -137.5v-356q0 -68 16.5 -126.5t29.5 -86t15 -31.5l101 41q-2 4 -15.5 35t-30 80t-16.5 88v356q0 102 -22.5 175t-57 123 t-77.5 80t-86 45t-80 20.5t-60 5.5q-68 0 -127 -17.5t-107 -48.5t-85 -71t-59 -85h-5l-8 197h-94zM371 1163h63q4 41 17.5 67.5t40.5 26.5q23 0 46 -9t60 -29q35 -18 64.5 -30.5t58.5 -12.5q66 0 94.5 46t28.5 124h-62q-4 -53 -17 -71t-34 -18q-29 0 -52.5 9.5t-47.5 21.5 q-47 23 -77 37t-65 14q-59 0 -89.5 -54t-28.5 -122z" />
<glyph unicode="&#xf2;" horiz-adv-x="1210" d="M88 481q0 -109 38 -202t105.5 -160.5t160.5 -105.5t204 -38q90 0 183 31t170 95.5t125 164t48 238.5q0 104 -35.5 196.5t-102 161t-162 107.5t-214.5 39q-102 0 -196.5 -36t-166 -104.5t-114.5 -166t-43 -220.5zM186 487q0 86 27 165t79 140.5t131 97.5t183 36 q109 0 186.5 -41t129 -103.5t75 -138t23.5 -145.5q0 -106 -36 -188.5t-94.5 -138.5t-135 -85t-158.5 -29q-80 0 -153.5 29t-130 84t-91.5 135t-35 182zM369 1397l260 -287h78l-187 287h-151z" />
<glyph unicode="&#xf3;" horiz-adv-x="1210" d="M88 481q0 -109 38 -202t105.5 -160.5t160.5 -105.5t204 -38q90 0 183 31t170 95.5t125 164t48 238.5q0 104 -35.5 196.5t-102 161t-162 107.5t-214.5 39q-102 0 -196.5 -36t-166 -104.5t-114.5 -166t-43 -220.5zM186 487q0 86 27 165t79 140.5t131 97.5t183 36 q109 0 186.5 -41t129 -103.5t75 -138t23.5 -145.5q0 -106 -36 -188.5t-94.5 -138.5t-135 -85t-158.5 -29q-80 0 -153.5 29t-130 84t-91.5 135t-35 182zM510 1110h78l260 287h-152z" />
<glyph unicode="&#xf4;" horiz-adv-x="1210" d="M88 481q0 -109 38 -202t105.5 -160.5t160.5 -105.5t204 -38q90 0 183 31t170 95.5t125 164t48 238.5q0 104 -35.5 196.5t-102 161t-162 107.5t-214.5 39q-102 0 -196.5 -36t-166 -104.5t-114.5 -166t-43 -220.5zM186 487q0 86 27 165t79 140.5t131 97.5t183 36 q109 0 186.5 -41t129 -103.5t75 -138t23.5 -145.5q0 -106 -36 -188.5t-94.5 -138.5t-135 -85t-158.5 -29q-80 0 -153.5 29t-130 84t-91.5 135t-35 182zM367 1110h96l137 209h4l137 -209h105l-205 287h-78z" />
<glyph unicode="&#xf5;" horiz-adv-x="1210" d="M88 481q0 -109 38 -202t105.5 -160.5t160.5 -105.5t204 -38q90 0 183 31t170 95.5t125 164t48 238.5q0 104 -35.5 196.5t-102 161t-162 107.5t-214.5 39q-102 0 -196.5 -36t-166 -104.5t-114.5 -166t-43 -220.5zM186 487q0 86 27 165t79 140.5t131 97.5t183 36 q109 0 186.5 -41t129 -103.5t75 -138t23.5 -145.5q0 -106 -36 -188.5t-94.5 -138.5t-135 -85t-158.5 -29q-80 0 -153.5 29t-130 84t-91.5 135t-35 182zM371 1163h63q4 41 17.5 67.5t40.5 26.5q23 0 46 -9t60 -29q35 -18 64.5 -30.5t58.5 -12.5q66 0 94.5 46t28.5 124h-62 q-4 -53 -17 -71t-34 -18q-29 0 -52.5 9.5t-47.5 21.5q-47 23 -77 37t-65 14q-59 0 -89.5 -54t-28.5 -122z" />
<glyph unicode="&#xf6;" horiz-adv-x="1210" d="M88 481q0 -109 38 -202t105.5 -160.5t160.5 -105.5t204 -38q90 0 183 31t170 95.5t125 164t48 238.5q0 104 -35.5 196.5t-102 161t-162 107.5t-214.5 39q-102 0 -196.5 -36t-166 -104.5t-114.5 -166t-43 -220.5zM186 487q0 86 27 165t79 140.5t131 97.5t183 36 q109 0 186.5 -41t129 -103.5t75 -138t23.5 -145.5q0 -106 -36 -188.5t-94.5 -138.5t-135 -85t-158.5 -29q-80 0 -153.5 29t-130 84t-91.5 135t-35 182zM344 1239q0 -33 20.5 -58.5t57.5 -25.5q39 0 59.5 25.5t20.5 58.5q0 35 -21.5 59.5t-56.5 24.5t-57.5 -25.5t-22.5 -58.5 zM711 1239q0 -33 20.5 -58.5t56.5 -25.5q39 0 59.5 25.5t20.5 58.5q0 35 -21.5 59.5t-55.5 24.5q-35 0 -57.5 -25.5t-22.5 -58.5z" />
<glyph unicode="&#xf7;" horiz-adv-x="1220" d="M80 506h1057v82h-1057v-82zM522 190q0 -37 23.5 -65.5t62.5 -28.5q41 0 64.5 28.5t23.5 65.5q0 41 -23.5 69t-62.5 28t-62.5 -28t-25.5 -69zM524 901q0 -37 23.5 -65.5t62.5 -28.5q41 0 64.5 28.5t23.5 65.5q0 41 -23.5 68.5t-62.5 27.5t-62.5 -27.5t-25.5 -68.5z" />
<glyph unicode="&#xf8;" horiz-adv-x="1210" d="M88 481q0 -113 42 -207t116 -163l-92 -113l57 -53l96 116q61 -43 138 -64.5t159 -21.5q90 0 182.5 31t167 96.5t121.5 165t47 238.5q0 104 -40 199.5t-117 168.5l92 117l-64 47l-92 -114q-63 41 -138 62.5t-153 21.5q-104 0 -198.5 -36t-167 -104.5t-114.5 -166 t-42 -220.5zM190 487q0 82 25 161t76 140.5t130 99.5t185 38h8q142 -4 236 -74l-543 -672h-4q-59 63 -86 142t-27 165zM365 129l540 672h4q66 -72 90.5 -156t24.5 -145q0 -104 -34 -186.5t-91 -138.5t-134 -87t-163 -31h-6q-61 0 -119.5 15.5t-111.5 56.5z" />
<glyph unicode="&#xf9;" horiz-adv-x="1200" d="M170 432q0 -158 42 -248t101.5 -137t122 -59.5t105.5 -12.5q74 0 135 19.5t108 51.5t82 72t58 81h4q0 -2 2 -19.5t6 -45.5t8 -50q8 -33 20 -68l11 -36l94 20q-23 53 -36 115.5t-13 122.5v745h-100v-596q0 -33 -7.5 -62.5t-17.5 -52.5q-39 -86 -127 -147.5t-201 -61.5 q-82 0 -138 29t-92 80t-51.5 123t-15.5 158v530h-100v-551zM373 1397l260 -287h78l-187 287h-151z" />
<glyph unicode="&#xfa;" horiz-adv-x="1200" d="M170 432q0 -158 42 -248t101.5 -137t122 -59.5t105.5 -12.5q74 0 135 19.5t108 51.5t82 72t58 81h4q0 -2 2 -19.5t6 -45.5t8 -50q8 -33 20 -68l11 -36l94 20q-23 53 -36 115.5t-13 122.5v745h-100v-596q0 -33 -7.5 -62.5t-17.5 -52.5q-39 -86 -127 -147.5t-201 -61.5 q-82 0 -138 29t-92 80t-51.5 123t-15.5 158v530h-100v-551zM535 1110h77l260 287h-151z" />
<glyph unicode="&#xfb;" horiz-adv-x="1200" d="M170 432q0 -158 42 -248t101.5 -137t122 -59.5t105.5 -12.5q74 0 135 19.5t108 51.5t82 72t58 81h4q0 -2 2 -19.5t6 -45.5t8 -50q8 -33 20 -68l11 -36l94 20q-23 53 -36 115.5t-13 122.5v745h-100v-596q0 -33 -7.5 -62.5t-17.5 -52.5q-39 -86 -127 -147.5t-201 -61.5 q-82 0 -138 29t-92 80t-51.5 123t-15.5 158v530h-100v-551zM360 1110h97l137 209h4l137 -209h105l-205 287h-78z" />
<glyph unicode="&#xfc;" horiz-adv-x="1200" d="M170 432q0 -158 42 -248t101.5 -137t122 -59.5t105.5 -12.5q74 0 135 19.5t108 51.5t82 72t58 81h4q0 -2 2 -19.5t6 -45.5t8 -50q8 -33 20 -68l11 -36l94 20q-23 53 -36 115.5t-13 122.5v745h-100v-596q0 -33 -7.5 -62.5t-17.5 -52.5q-39 -86 -127 -147.5t-201 -61.5 q-82 0 -138 29t-92 80t-51.5 123t-15.5 158v530h-100v-551zM344 1239q0 -33 20.5 -58.5t57.5 -25.5q39 0 59.5 25.5t20.5 58.5q0 35 -21.5 59.5t-56.5 24.5t-57.5 -25.5t-22.5 -58.5zM711 1239q0 -33 20.5 -58.5t56.5 -25.5q39 0 59.5 25.5t20.5 58.5q0 35 -21.5 59.5 t-55.5 24.5q-35 0 -57.5 -25.5t-22.5 -58.5z" />
<glyph unicode="&#xfd;" horiz-adv-x="983" d="M18 983l408 -913q14 -31 14 -45q0 -12 -12 -39q-47 -104 -98 -168t-90 -97q-47 -41 -95.5 -63.5t-85.5 -32.5l27 -84q16 4 66.5 22.5t113.5 65.5q49 35 91 83t84 115t85 156t95 205l348 795h-109l-274 -649q-25 -59 -45.5 -113.5t-36.5 -101.5h-4q-14 47 -36 103.5 t-44 103.5l-293 657h-109zM426 1110h78l260 287h-152z" />
<glyph unicode="&#xfe;" horiz-adv-x="1255" d="M180 -410h101v584h4q66 -104 167 -151.5t212 -47.5q100 0 191 34t160.5 101.5t110.5 168t41 233.5q0 100 -33.5 190.5t-96 158t-149.5 107.5t-194 40q-156 0 -254 -63.5t-155 -156.5h-4v576h-101v-1774zM281 387v172q0 29 7 61.5t17 59.5q47 121 149.5 183.5t219.5 62.5 q90 0 162.5 -34t124 -90.5t79 -132t27.5 -159.5q0 -109 -30.5 -194t-84 -142t-125 -87t-155.5 -30q-70 0 -130.5 19.5t-108.5 51.5t-83 76t-53 93q-16 43 -16 90z" />
<glyph unicode="&#xff;" horiz-adv-x="983" d="M18 983l408 -913q14 -31 14 -45q0 -12 -12 -39q-47 -104 -98 -168t-90 -97q-47 -41 -95.5 -63.5t-85.5 -32.5l27 -84q16 4 66.5 22.5t113.5 65.5q49 35 91 83t84 115t85 156t95 205l348 795h-109l-274 -649q-25 -59 -45.5 -113.5t-36.5 -101.5h-4q-14 47 -36 103.5 t-44 103.5l-293 657h-109zM258 1239q0 -33 20.5 -58.5t57.5 -25.5q39 0 59.5 25.5t20.5 58.5q0 35 -21.5 59.5t-56.5 24.5t-57.5 -25.5t-22.5 -58.5zM625 1239q0 -33 20.5 -58.5t56.5 -25.5q39 0 59.5 25.5t20.5 58.5q0 35 -21.5 59.5t-55.5 24.5q-35 0 -57.5 -25.5 t-22.5 -58.5z" />
<glyph unicode="&#x152;" horiz-adv-x="1970" d="M78 682q0 -158 53 -288t148.5 -223t227.5 -144.5t292 -51.5q59 0 108 4.5t97 8.5q45 4 85.5 8t77.5 4h719v84h-684v600h615v84h-615v528h649v84h-673q-35 0 -73 4.5t-83 8.5t-96.5 8t-114.5 4q-166 0 -301 -52.5t-231.5 -147.5t-148.5 -228t-52 -295zM182 688 q0 119 36 233.5t112 203.5t194.5 143.5t282.5 54.5q104 0 172 -10t123 -25v-1196q-47 -16 -122 -25.5t-157 -9.5q-158 0 -277.5 51.5t-200.5 137.5t-122 200.5t-41 241.5z" />
<glyph unicode="&#x153;" horiz-adv-x="1955" d="M88 481q0 -109 36 -201t101.5 -159.5t156.5 -106.5t200 -39q63 0 129.5 16.5t125 51.5t106.5 88t77 127h4q55 -129 175 -206t288 -77q37 0 70.5 2.5t62.5 6.5l-8 84q-49 -6 -115 -7q-88 0 -164 27t-132 81t-88 134t-32 189h817q4 12 5 24v37q0 49 -15.5 126t-61.5 150.5 t-130 126t-221 52.5q-152 0 -268.5 -76t-176.5 -215v2h-4q-49 135 -162.5 212t-273.5 77q-102 0 -193.5 -38t-160 -106.5t-108.5 -166t-40 -216.5zM188 487q0 76 22.5 154t71 141.5t123 103.5t179.5 40q100 0 175 -37t124 -98.5t73.5 -139t24.5 -159.5q0 -92 -25 -166 q-14 -43 -34.5 -79t-47.5 -65q-55 -61 -129.5 -93t-160.5 -32q-74 0 -145.5 29t-127 84t-89.5 135t-34 182zM1087 571q8 55 33 118t69 115t111.5 87t161.5 35q111 0 177.5 -41t102.5 -98.5t46 -117t10 -98.5h-711z" />
<glyph unicode="&#x178;" horiz-adv-x="1107" d="M25 1380l483 -790v-590h100v586l514 794h-114l-269 -430q-51 -82 -94 -152.5t-78 -135.5h-4q-39 72 -79 138t-89 150l-256 430h-114zM293 1567q0 -33 20.5 -58.5t57.5 -25.5q39 0 59.5 25.5t20.5 58.5q0 35 -21.5 59.5t-56.5 24.5t-57.5 -26t-22.5 -58zM659 1567 q0 -33 20.5 -58.5t57.5 -25.5q39 0 59.5 25.5t20.5 58.5q0 35 -21.5 59.5t-56.5 24.5t-57.5 -26t-22.5 -58z" />
<glyph unicode="&#x2c6;" d="M68 1110h96l137 209h4l137 -209h105l-205 287h-78z" />
<glyph unicode="&#x2dc;" d="M72 1163h63q4 41 17.5 67.5t40.5 26.5q23 0 46 -9t60 -29q35 -18 64.5 -30.5t58.5 -12.5q66 0 94.5 46t28.5 124h-62q-4 -53 -17 -71t-34 -18q-29 0 -52.5 9.5t-47.5 21.5q-47 23 -77 37t-65 14q-59 0 -89.5 -54t-28.5 -122z" />
<glyph unicode="&#x2000;" horiz-adv-x="845" />
<glyph unicode="&#x2001;" horiz-adv-x="1690" />
<glyph unicode="&#x2002;" horiz-adv-x="845" />
<glyph unicode="&#x2003;" horiz-adv-x="1690" />
<glyph unicode="&#x2004;" horiz-adv-x="563" />
<glyph unicode="&#x2005;" horiz-adv-x="422" />
<glyph unicode="&#x2006;" horiz-adv-x="281" />
<glyph unicode="&#x2007;" horiz-adv-x="281" />
<glyph unicode="&#x2008;" horiz-adv-x="211" />
<glyph unicode="&#x2009;" horiz-adv-x="338" />
<glyph unicode="&#x200a;" horiz-adv-x="93" />
<glyph unicode="&#x2010;" d="M61 535h492v88h-492v-88z" />
<glyph unicode="&#x2011;" d="M61 535h492v88h-492v-88z" />
<glyph unicode="&#x2012;" d="M61 535h492v88h-492v-88z" />
<glyph unicode="&#x2013;" horiz-adv-x="1024" d="M61 475h902v82h-902v-82z" />
<glyph unicode="&#x2014;" horiz-adv-x="2048" d="M61 475h1926v82h-1926v-82z" />
<glyph unicode="&#x2018;" horiz-adv-x="358" d="M88 969l121 20q6 47 19.5 108.5t28.5 123t30.5 115.5t27.5 87l-69 -10q-12 -23 -34 -73t-44.5 -113.5t-44 -132t-35.5 -125.5z" />
<glyph unicode="&#x2019;" horiz-adv-x="358" d="M88 969l70 10q12 20 32.5 71.5t44 115t45 132t35.5 125.5l-120 -20q-6 -47 -19.5 -109.5t-29 -124t-31 -115t-27.5 -85.5z" />
<glyph unicode="&#x201a;" horiz-adv-x="473" d="M119 -412l100 -20l9 22q10 21 22 58t21.5 84t9.5 96v1204q0 74 10 142.5t36.5 120t74 82t122.5 30.5q49 0 82 -9t56 -22l32 78q-33 20 -100 33q-14 2 -29.5 3t-32.5 1q-139 0 -233 -88q-63 -59 -91 -152.5t-28 -220.5v-1204q0 -43 -9 -86t-21.5 -77t-21.5 -55z" />
<glyph unicode="&#x201c;" horiz-adv-x="602" d="M88 969l121 20q6 47 19.5 108.5t28.5 123t30.5 115.5t27.5 87l-69 -10q-12 -23 -34 -73t-44.5 -113.5t-44 -132t-35.5 -125.5zM332 969l121 20q6 47 19 108.5t28.5 123t31 115.5t27.5 87l-70 -10q-12 -23 -33.5 -73t-44 -113.5t-44 -132t-35.5 -125.5z" />
<glyph unicode="&#x201d;" horiz-adv-x="602" d="M88 969l70 10q12 20 32.5 71.5t44 115t45 132t35.5 125.5l-120 -20q-6 -47 -19.5 -109.5t-29 -124t-31 -115t-27.5 -85.5zM332 969l69 10q12 20 33 71.5t44.5 115t45 132t35.5 125.5l-121 -20q-6 -47 -19 -109.5t-28.5 -124t-31 -115t-27.5 -85.5z" />
<glyph unicode="&#x201e;" horiz-adv-x="602" d="M43 -258l70 10q12 20 32.5 71.5t44 115t45 132.5t35.5 126l-120 -21q-6 -47 -19.5 -109.5t-29 -124t-31 -114.5t-27.5 -86zM287 -258l69 10q12 20 33 71.5t44.5 115t45 132.5t35.5 126l-121 -21q-6 -47 -19.5 -109.5t-28.5 -124t-30.5 -114.5t-27.5 -86z" />
<glyph unicode="&#x2022;" horiz-adv-x="481" d="M82 707q0 -68 47 -114t113 -46q68 0 114.5 47t46.5 113t-47 112.5t-114 46.5q-33 0 -62.5 -12t-51.5 -33.5t-34 -51.5t-12 -62z" />
<glyph unicode="&#x2026;" horiz-adv-x="2048" d="M256 70q0 -37 23.5 -66t62.5 -29q41 0 64.5 29t23.5 66q0 41 -23.5 68.5t-62.5 27.5t-62.5 -27.5t-25.5 -68.5zM936 70q0 -37 23.5 -66t62.5 -29q41 0 64.5 29t23.5 66q0 41 -23.5 68.5t-62.5 27.5t-62.5 -27.5t-25.5 -68.5zM1616 70q0 -37 23.5 -66t62.5 -29 q41 0 64.5 29t23.5 66q0 41 -23.5 68.5t-62.5 27.5t-62.5 -27.5t-25.5 -68.5z" />
<glyph unicode="&#x202f;" horiz-adv-x="338" />
<glyph unicode="&#x2039;" horiz-adv-x="532" d="M61 516l322 -377h106l-321 377l319 377h-106z" />
<glyph unicode="&#x203a;" horiz-adv-x="532" d="M43 893l322 -377l-320 -377h105l321 377l-321 377h-107z" />
<glyph unicode="&#x205f;" horiz-adv-x="422" />
<glyph unicode="&#x20ac;" horiz-adv-x="1374" d="M41 440h174q37 -119 107.5 -206t163 -144t201 -86t222.5 -29q150 0 261.5 25.5t170.5 54.5l-30 80q-72 -35 -167 -54.5t-198 -19.5q-123 0 -223 28t-178 78t-133.5 119.5t-85.5 153.5h772v82h-797q-16 78 -16 154q0 84 14 153h799v82h-776q61 184 225 297t424 113 q98 0 185 -19.5t149 -50.5l32 84q-35 16 -125 43t-247 27q-154 0 -277 -39t-217 -106.5t-157.5 -157.5t-96.5 -191h-176v-82h154q-8 -35 -11.5 -71.5t-3.5 -73.5q0 -90 15 -162h-154v-82z" />
<glyph unicode="&#x2122;" horiz-adv-x="1622" d="M20 1311h285v-746h78v746h285v69h-648v-69zM680 565h80l41 553q4 49 3 94t1 95h6q12 -47 28.5 -100.5t32.5 -92.5l209 -539h66l207 523q18 47 35.5 103t33.5 106h7q2 -47 -0.5 -99.5t2.5 -89.5l45 -553h82l-72 815h-101l-206 -522q-16 -39 -29.5 -88t-28.5 -108h-4 q-16 59 -29.5 107t-29.5 87l-211 524h-98z" />
<glyph unicode="&#xe000;" horiz-adv-x="983" d="M0 0v983h983v-983h-983z" />
</font>
</defs>
</svg>
